<?xml version="1.0" encoding="UTF-8"?>
<svg id="Layer_2" data-name="Layer 2" xmlns="http://www.w3.org/2000/svg" xmlns:xlink="http://www.w3.org/1999/xlink" viewBox="0 0 845 297">
  <defs>
    <style>
      .cls-1 {
        filter: url(#drop-shadow-1);
      }

      .cls-1, .cls-2, .cls-3, .cls-4, .cls-5, .cls-6, .cls-7, .cls-8, .cls-9 {
        stroke: #fff;
        stroke-miterlimit: 10;
        stroke-width: .5px;
      }

      .cls-1, .cls-3 {
        fill: #78c043;
      }

      .cls-2 {
        filter: url(#drop-shadow-7);
      }

      .cls-2, .cls-5, .cls-6, .cls-7, .cls-8, .cls-9 {
        fill: #21428b;
      }

      .cls-3 {
        filter: url(#drop-shadow-8);
      }

      .cls-4 {
        fill: #6d6e70;
      }

      .cls-5 {
        filter: url(#drop-shadow-4);
      }

      .cls-6 {
        filter: url(#drop-shadow-3);
      }

      .cls-7 {
        filter: url(#drop-shadow-6);
      }

      .cls-10 {
        filter: url(#drop-shadow-9);
      }

      .cls-8 {
        filter: url(#drop-shadow-5);
      }

      .cls-9 {
        filter: url(#drop-shadow-2);
      }
    </style>
    <filter id="drop-shadow-1" filterUnits="userSpaceOnUse">
      <feOffset dx="10" dy="10"/>
      <feGaussianBlur result="blur" stdDeviation="7.5"/>
      <feFlood flood-color="#999" flood-opacity=".75"/>
      <feComposite in2="blur" operator="in"/>
      <feComposite in="SourceGraphic"/>
    </filter>
    <filter id="drop-shadow-2" filterUnits="userSpaceOnUse">
      <feOffset dx="10" dy="10"/>
      <feGaussianBlur result="blur-2" stdDeviation="7.5"/>
      <feFlood flood-color="#999" flood-opacity=".75"/>
      <feComposite in2="blur-2" operator="in"/>
      <feComposite in="SourceGraphic"/>
    </filter>
    <filter id="drop-shadow-3" filterUnits="userSpaceOnUse">
      <feOffset dx="10" dy="10"/>
      <feGaussianBlur result="blur-3" stdDeviation="7.5"/>
      <feFlood flood-color="#999" flood-opacity=".75"/>
      <feComposite in2="blur-3" operator="in"/>
      <feComposite in="SourceGraphic"/>
    </filter>
    <filter id="drop-shadow-4" filterUnits="userSpaceOnUse">
      <feOffset dx="10" dy="10"/>
      <feGaussianBlur result="blur-4" stdDeviation="7.5"/>
      <feFlood flood-color="#999" flood-opacity=".75"/>
      <feComposite in2="blur-4" operator="in"/>
      <feComposite in="SourceGraphic"/>
    </filter>
    <filter id="drop-shadow-5" filterUnits="userSpaceOnUse">
      <feOffset dx="10" dy="10"/>
      <feGaussianBlur result="blur-5" stdDeviation="7.5"/>
      <feFlood flood-color="#999" flood-opacity=".75"/>
      <feComposite in2="blur-5" operator="in"/>
      <feComposite in="SourceGraphic"/>
    </filter>
    <filter id="drop-shadow-6" filterUnits="userSpaceOnUse">
      <feOffset dx="10" dy="10"/>
      <feGaussianBlur result="blur-6" stdDeviation="7.5"/>
      <feFlood flood-color="#999" flood-opacity=".75"/>
      <feComposite in2="blur-6" operator="in"/>
      <feComposite in="SourceGraphic"/>
    </filter>
    <filter id="drop-shadow-7" filterUnits="userSpaceOnUse">
      <feOffset dx="10" dy="10"/>
      <feGaussianBlur result="blur-7" stdDeviation="7.5"/>
      <feFlood flood-color="#999" flood-opacity=".75"/>
      <feComposite in2="blur-7" operator="in"/>
      <feComposite in="SourceGraphic"/>
    </filter>
    <filter id="drop-shadow-8" filterUnits="userSpaceOnUse">
      <feOffset dx="10" dy="10"/>
      <feGaussianBlur result="blur-8" stdDeviation="7.5"/>
      <feFlood flood-color="#999" flood-opacity=".75"/>
      <feComposite in2="blur-8" operator="in"/>
      <feComposite in="SourceGraphic"/>
    </filter>
    <filter id="drop-shadow-9" filterUnits="userSpaceOnUse">
      <feOffset dx="10" dy="10"/>
      <feGaussianBlur result="blur-9" stdDeviation="7.5"/>
      <feFlood flood-color="#999" flood-opacity=".75"/>
      <feComposite in2="blur-9" operator="in"/>
      <feComposite in="SourceGraphic"/>
    </filter>
  </defs>
  <g id="Layer_1-2" data-name="Layer 1">
    <g>
      <polygon class="cls-1" points="219.04 59.12 209.34 39.69 189.7 52.19 209.12 76.7 216.14 85.55 222.16 78.13 273.47 14.93 219.04 59.12"/>
      <path class="cls-9" d="M13.36,207.15L46.34,49.13H120.04c10.18,0,18.7,.96,25.56,2.88,6.86,1.92,11.95,4.65,15.27,8.19,3.32,3.54,5.57,7.12,6.75,10.73,1.18,3.62,1.77,7.86,1.77,12.73,0,10.48-2.55,19.07-7.64,25.78-5.09,6.72-12.28,11.1-21.58,13.17v.44c6.79,1.77,12.21,5.53,16.27,11.29,4.06,5.75,6.09,12.32,6.09,19.7,0,16.23-6.31,29.14-18.92,38.73-12.62,9.59-30.29,14.39-53.01,14.39H13.36Zm55.11-68.17l-7.53,35.85h32.31c8.56,0,15.38-1.4,20.47-4.21,5.09-2.8,7.63-8.11,7.63-15.94,0-4.57-1.37-8.08-4.09-10.51-2.73-2.43-5.57-3.91-8.52-4.43-2.95-.52-6.72-.77-11.29-.77h-28.99Zm11.95-57.54l-6.2,29.88h29.21c8.55,0,14.83-1.36,18.81-4.1,3.98-2.73,5.98-7.19,5.98-13.39,0-8.26-6.94-12.39-20.8-12.39h-27Z"/>
      <polygon class="cls-6" points="172.71 207.15 210.34 207.15 234.24 92.29 196.61 92.29 172.71 207.15"/>
      <path class="cls-5" d="M235.12,210.47h37.62c0,4.43,1.4,7.82,4.21,10.18,2.8,2.36,6.42,3.54,10.84,3.54,3.24,0,6.12-.3,8.63-.89,2.51-.59,4.68-1.66,6.53-3.21,1.84-1.55,3.32-2.95,4.43-4.21,1.11-1.25,2.14-3.32,3.1-6.2,.96-2.88,1.66-5.02,2.1-6.42,.44-1.4,1.03-3.98,1.77-7.75,.74-3.76,1.25-6.31,1.55-7.64h-.44c-2.8,4.43-7.05,7.82-12.73,10.18-5.68,2.36-11.47,3.54-17.37,3.54-12.84,0-23.24-4.13-31.21-12.39-7.97-8.26-11.95-18.89-11.95-31.87,0-11.36,2.03-22.13,6.09-32.31,4.06-10.18,10.44-18.74,19.14-25.67,8.7-6.93,18.81-10.4,30.32-10.4,18.29,0,30.02,6.49,35.19,19.47h.44l3.1-16.16h36.08l-19.26,92.73c-5.02,24.2-12.28,40.65-21.8,49.35-9.52,8.7-24.83,13.06-45.92,13.06-6.64,0-12.8-.55-18.48-1.66-5.68-1.11-11.07-2.99-16.16-5.64-5.09-2.65-9.04-6.49-11.84-11.51-2.8-5.02-4.13-11.07-3.98-18.15Zm63.08-34.3c8.7,0,15.45-3.43,20.25-10.29,4.79-6.86,7.19-15.08,7.19-24.68,0-7.08-1.51-12.76-4.54-17.04-3.03-4.28-7.49-6.42-13.39-6.42-9,0-15.9,3.62-20.69,10.84-4.8,7.23-7.19,15.64-7.19,25.23,0,6.64,1.47,12.03,4.43,16.16,2.95,4.13,7.6,6.2,13.94,6.2Z"/>
      <path class="cls-8" d="M372.34,207.15l33.2-158.02h77.68c14.02,0,25.12,4.32,33.31,12.95,8.19,8.63,12.28,20.03,12.28,34.19,0,19.18-6.31,33.94-18.92,44.26-12.62,10.33-28.96,15.49-49.02,15.49h-36.52l-10.85,51.12h-41.16Zm67.28-124.16l-8.19,39.17h28.99c18.15,0,27.22-7.38,27.22-22.13,0-6.79-2.18-11.32-6.53-13.61-4.35-2.29-10.44-3.43-18.26-3.43h-23.24Z"/>
      <path class="cls-7" d="M596.54,88.97c-32.47,0-51.2,12.91-56.21,38.72h35.63c.73-5.16,2.79-8.85,6.19-11.07,3.4-2.21,8.27-3.31,14.61-3.31,10.61,0,15.94,3.67,15.94,11.07,0,1.61-.19,3.09-.56,4.43-.37,1.33-1.01,2.47-1.89,3.42-.88,.97-1.72,1.83-2.54,2.56-.82,.73-2,1.33-3.55,1.76-1.55,.45-2.84,.82-3.87,1.12-1.03,.3-2.56,.54-4.53,.77-2,.21-3.52,.37-4.56,.43-1.03,.09-2.62,.15-4.75,.24-2.15,.06-3.59,.11-4.32,.11-6.64,.58-12.4,1.25-17.25,2-4.88,.73-9.97,2.02-15.28,3.87-5.31,1.85-9.63,4.08-12.94,6.75-3.33,2.66-6.06,6.23-8.21,10.72-2.13,4.51-3.2,9.71-3.2,15.62,0,11.22,3.4,19.4,10.19,24.56,6.79,5.16,15.86,7.74,27.22,7.74,16.67,0,28.26-4.79,34.75-14.37h.45v3.55c0,2.36,.28,4.86,.88,7.52h36.96c-1.03-3.09-1.55-6.04-1.55-8.85,0-4.88,1.18-12.03,3.55-21.47,.28-1.33,1.16-5.05,2.64-11.17,1.48-6.12,2.77-11.58,3.87-16.37,1.12-4.81,2.19-10.16,3.22-16.05,1.03-5.91,1.55-10.64,1.55-14.16,0-20.07-17.49-30.1-52.45-30.1Zm8.96,73.04c-.52,2.36-1.44,5.16-2.77,8.4-1.33,3.24-2.99,6.06-4.98,8.42-1.98,2.34-4.68,4.34-8.08,5.97-3.39,1.61-7.22,2.43-11.5,2.43-10.19,0-15.28-3.98-15.28-11.95,0-5.03,1.85-8.81,5.54-11.41,3.67-2.58,7.84-4.02,12.51-4.3,4.64-.3,9.58-.82,14.83-1.57,5.22-.73,8.81-1.91,10.72-3.52h.21c-.28,2.64-.69,5.16-1.2,7.52Z"/>
      <polygon class="cls-2" points="708.6 159.11 708.58 159.13 683.41 199.07 663.15 92.28 701.44 92.28 708.6 159.11"/>
      <path class="cls-3" d="M789.36,13.69l-55.71,58.52,19.57,4.81-.34,.63s-.37,1.06-1.12,3.04c-7.02,19.09-46.96,122.84-99,164.26-9.6,7.66-19.61,13.17-29.91,15.65,0,0,71.89,40.76,169.67-173.92l19.31,4.75-22.48-77.74Z"/>
      <g class="cls-10">
        <path class="cls-4" d="M341.69,232.97c0,8.67,10.8,5.76,10.8,11.41,0,2.94-2.29,4.6-5.69,4.6-2.62,0-5.24-1.2-6.83-3.09l-1.32,3.09c1.53,1.86,4.67,3.29,7.89,3.29,5.24,0,8.91-3.17,8.91-8.43,0-8.24-10.81-5.53-10.81-11.22,0-2.86,2.2-4.76,5.66-4.76,2.14,0,4.15,.74,5.72,2.17l1.2-3.17c-1.72-1.47-4.18-2.28-6.77-2.28-5.15,0-8.76,3.21-8.76,8.4Z"/>
        <polygon class="cls-4" points="358.89 251.96 361.78 251.96 364.94 231.46 362.05 231.46 358.89 251.96"/>
        <path class="cls-4" d="M364.61,222.67c-1.23,0-2.08,1.16-2.08,2.59,0,1.24,.75,2.24,1.81,2.24,1.23,0,2.11-1.08,2.11-2.67,0-1.16-.78-2.17-1.84-2.17Z"/>
        <path class="cls-4" d="M390.55,231.26c-2.65,0-4.88,1.2-6.5,3.64-.81-2.36-2.62-3.64-5.12-3.64-2.17,0-4.09,.85-5.54,2.75l.39-2.55h-2.77l-3.16,20.51h2.89l1.68-10.83c.69-4.41,2.65-6.54,5.6-6.54,2.41,0,3.55,1.51,3.55,4.14,0,.54-.06,1.12-.15,1.74l-1.81,11.49h2.89l1.72-10.95c.69-4.33,2.68-6.42,5.6-6.42,2.38,0,3.52,1.47,3.52,4.1,0,.54-.06,1.12-.15,1.78l-1.78,11.49h2.89l1.78-11.49c.12-.89,.21-1.7,.21-2.44,0-4.34-2.14-6.77-5.75-6.77Z"/>
        <path class="cls-4" d="M411.39,231.26c-2.32,0-4.21,1.01-5.63,2.75l.39-2.55h-2.77l-4.33,28.01h2.89l1.69-10.99c1.02,2.4,3.04,3.71,5.78,3.71,5.18,0,9.03-5.07,9.03-12.11,0-5.53-2.98-8.82-7.04-8.82Zm-2.11,17.68c-3.04,0-4.76-2.17-4.76-5.76,0-5.07,2.62-8.67,6.23-8.67,3.04,0,4.76,2.13,4.76,5.76,0,5.07-2.65,8.67-6.23,8.67Z"/>
        <polygon class="cls-4" points="421.31 251.96 424.2 251.96 428.66 223.25 425.77 223.25 421.31 251.96"/>
        <path class="cls-4" d="M439.25,231.26c-5.21,0-9,5.07-9,12.03,0,5.42,2.92,8.9,7.65,8.9,2.44,0,4.84-1.04,6.41-2.94l-1.23-2.67c-1.14,1.43-2.95,2.36-4.94,2.36-3.43,0-5.06-2.09-5.06-5.84v-.23h13.09c.12-.85,.21-1.78,.21-2.75,0-5.53-2.83-8.86-7.13-8.86Zm-5.87,8.9c.72-3.56,2.86-5.8,5.75-5.8s4.7,2.05,4.55,5.8h-10.29Z"/>
        <path class="cls-4" d="M450.37,246.89c-1.17,0-2.14,1.16-2.14,2.82,0,1.39,.84,2.48,1.93,2.48s2.11-1.12,2.11-2.79c0-1.47-.81-2.51-1.9-2.51Z"/>
        <polygon class="cls-4" points="475.59 228.25 476.1 224.88 461.23 224.88 457.02 251.96 460.03 251.96 461.72 241.01 472.31 241.01 472.82 237.69 462.23 237.69 463.7 228.25 475.59 228.25"/>
        <path class="cls-4" d="M490.54,234.94c-1.02-2.4-3.01-3.67-5.75-3.67-5.18,0-9.03,5.03-9.03,12.07,0,5.53,2.98,8.86,7.04,8.86,2.29,0,4.21-1.01,5.63-2.75l-.39,2.51h2.77l3.16-20.51h-2.89l-.54,3.48Zm-7.1,14.01c-3.04,0-4.76-2.17-4.76-5.76,0-5.07,2.65-8.67,6.23-8.67,3.04,0,4.76,2.13,4.76,5.76,0,5.07-2.62,8.67-6.23,8.67Z"/>
        <path class="cls-4" d="M504.46,234.44c1.63,0,3.4,.46,4.7,1.62l1.14-2.94c-1.29-1.16-3.46-1.86-5.57-1.86-4.36,0-7.22,2.59-7.22,6.65,0,6.92,8.85,4.06,8.85,8.05,0,1.9-1.41,3.02-4.18,3.02-2.17,0-4.3-.81-5.54-2.09l-1.29,2.94c1.29,1.35,3.85,2.36,6.56,2.36,4.33,0,7.31-2.4,7.31-6.66,0-6.81-8.82-3.91-8.82-8.05,0-1.78,1.39-3.06,4.06-3.06Z"/>
        <path class="cls-4" d="M519.69,226.97h-2.89l-.69,4.49h-2.74l-.45,3.06h2.71l-1.72,10.99c-.09,.54-.12,1.08-.12,1.55,0,3.21,1.72,5.15,4.21,5.15,1.26,0,2.62-.31,3.7-1.28l-.6-2.82c-.66,.62-1.51,.97-2.29,.97-1.44,0-2.11-.97-2.11-2.55,0-.35,.03-.7,.09-1.08l1.72-10.91h4.57l.48-3.06h-4.57l.69-4.49Z"/>
        <path class="cls-4" d="M526.99,246.89c-1.17,0-2.14,1.16-2.14,2.82,0,1.39,.84,2.48,1.93,2.48s2.11-1.12,2.11-2.79c0-1.47-.81-2.51-1.9-2.51Z"/>
        <path class="cls-4" d="M535.59,232.97c0,8.67,10.8,5.76,10.8,11.41,0,2.94-2.29,4.6-5.69,4.6-2.62,0-5.24-1.2-6.83-3.09l-1.32,3.09c1.53,1.86,4.67,3.29,7.89,3.29,5.24,0,8.91-3.17,8.91-8.43,0-8.24-10.81-5.53-10.81-11.22,0-2.86,2.2-4.76,5.66-4.76,2.14,0,4.15,.74,5.72,2.17l1.2-3.17c-1.72-1.47-4.18-2.28-6.77-2.28-5.15,0-8.76,3.21-8.76,8.4Z"/>
        <path class="cls-4" d="M561.77,231.26c-5.21,0-9,5.07-9,12.03,0,5.42,2.92,8.9,7.65,8.9,2.44,0,4.85-1.04,6.41-2.94l-1.23-2.67c-1.14,1.43-2.95,2.36-4.94,2.36-3.43,0-5.06-2.09-5.06-5.84v-.23h13.09c.12-.85,.21-1.78,.21-2.75,0-5.53-2.83-8.86-7.13-8.86Zm-5.87,8.9c.72-3.56,2.86-5.8,5.75-5.8s4.7,2.05,4.55,5.8h-10.29Z"/>
        <path class="cls-4" d="M580.9,234.51c2.05,0,3.49,.97,4.33,2.94l2.44-1.74c-1.23-2.98-3.49-4.45-6.56-4.45-5.48,0-9.39,5.15-9.39,12.07,0,5.34,2.95,8.86,7.58,8.86,2.86,0,5.51-1.59,6.98-4.22l-2.11-1.93c-1.11,1.93-2.86,2.9-4.76,2.9-3.07,0-4.79-2.17-4.79-5.76,0-5.07,2.65-8.67,6.26-8.67Z"/>
        <path class="cls-4" d="M602.95,242.33c-.69,4.37-2.83,6.54-5.84,6.54-2.44,0-3.64-1.51-3.64-4.14,0-.54,.06-1.12,.15-1.74l1.78-11.53h-2.89l-1.78,11.49c-.12,.85-.18,1.62-.18,2.36,0,4.37,2.23,6.89,5.72,6.89,2.23,0,4.24-.93,5.72-2.86l-.39,2.63h2.77l3.16-20.51h-2.89l-1.69,10.87Z"/>
        <path class="cls-4" d="M615.92,234.51l.45-3.06h-2.77l-3.16,20.51h2.89l1.59-10.25c.72-4.72,2.83-6.89,6.02-6.89,.3,0,.48,0,.75,.04l.54-3.6c-2.86,0-4.88,.93-6.32,3.25Z"/>
        <path class="cls-4" d="M638.87,242.87c.12-.85,.21-1.78,.21-2.75,0-5.53-2.83-8.86-7.13-8.86-5.21,0-9,5.07-9,12.03,0,5.42,2.92,8.9,7.65,8.9,2.44,0,4.84-1.04,6.41-2.94l-1.23-2.67c-1.14,1.43-2.95,2.36-4.94,2.36-3.43,0-5.06-2.09-5.06-5.84v-.23h13.09Zm-7.04-8.51c2.83,0,4.7,2.05,4.55,5.8h-10.29c.72-3.56,2.86-5.8,5.75-5.8Z"/>
      </g>
    </g>
  </g>
</svg>