<?xml version="1.0" encoding="UTF-8" standalone="no"?>
<svg
   viewBox="0 0 257051.55 25239.243"
   version="1.1"
   id="svg76"
   sodipodi:docname="logo.svg"
   width="257051.55"
   height="25239.242"
   xmlns:inkscape="http://www.inkscape.org/namespaces/inkscape"
   xmlns:sodipodi="http://sodipodi.sourceforge.net/DTD/sodipodi-0.dtd"
   xmlns="http://www.w3.org/2000/svg"
   xmlns:svg="http://www.w3.org/2000/svg">
  <sodipodi:namedview
     id="namedview78"
     pagecolor="#ffffff"
     bordercolor="#000000"
     borderopacity="0.25"
     inkscape:showpageshadow="2"
     inkscape:pageopacity="0.0"
     inkscape:pagecheckerboard="0"
     inkscape:deskcolor="#d1d1d1"
     showgrid="false" />
  <defs
     id="defs4">
    <style
       id="style2">.cls-1{fill:#1f448d;}.cls-2{fill:#7aba47;}.cls-3{fill:#7bba47;}.cls-4{fill:#717174;}.cls-5{fill:#727275;}.cls-6{fill:#737376;}.cls-7{fill:#757477;}.cls-8{fill:#747477;}.cls-9{fill:#757578;}.cls-10{fill:#78787b;}.cls-11{fill:#818082;}.cls-12{fill:#777577;}.cls-13{fill:#7d7d80;}.cls-14{fill:#bed895;}.cls-15{fill:#b7d8ef;}.cls-16{fill:#adbada;}.cls-17{fill:#fafbfc;}.cls-18{fill:#cee1ac;}</style>
  </defs>
  <g
     id="Layer_2"
     data-name="Layer 2"
     transform="translate(10.1372,15.858281)">
    <g
       id="Layer_1-2"
       data-name="Layer 1">
      <path
         class="cls-1"
         d="M 18,35.32 18.12,35.19 18.07,35 a 2.41,2.41 0 0 0 0.44,-1.94 0.39,0.39 0 0 0 0.08,-0.49 3.22,3.22 0 0 0 0.5,-2.32 0.33,0.33 0 0 0 0.07,-0.44 3.32,3.32 0 0 0 0.51,-2.37 0.26,0.26 0 0 0 0.06,-0.4 3.47,3.47 0 0 0 0.52,-2.41 l 0.13,-0.14 -0.07,-0.19 a 2.59,2.59 0 0 0 0.47,-1.91 c 0.88,-0.77 2,-0.44 2.94,-0.44 q 23.87,0 47.74,0.05 a 6,6 0 0 0 0.82,-0.12 12.71,12.71 0 0 0 4.63,0.44 2.48,2.48 0 0 0 1.5,0.13 3.65,3.65 0 0 0 2.44,0.45 l 0.53,0.08 a 3.34,3.34 0 0 0 2.28,0.53 l 0.14,0.13 0.19,-0.05 a 1.45,1.45 0 0 0 1.35,0.44 0.3,0.3 0 0 0 0.41,0.11 1.34,1.34 0 0 0 1.27,0.46 0.22,0.22 0 0 0 0.34,0.11 1.51,1.51 0 0 0 1.32,0.56 v 0 a 1.22,1.22 0 0 0 1.15,0.58 v 0 a 0.53,0.53 0 0 0 0.62,0.41 0.28,0.28 0 0 0 0.37,0.17 0.8,0.8 0 0 0 0.75,0.49 v 0 a 1.28,1.28 0 0 0 1,0.73 v -0.06 a 0.72,0.72 0 0 0 0.64,0.57 v -0.05 a 0.72,0.72 0 0 0 0.62,0.59 v -0.05 a 0.71,0.71 0 0 0 0.58,0.63 v -0.05 a 0.76,0.76 0 0 0 0.58,0.65 l -0.06,-0.06 a 1.27,1.27 0 0 0 0.75,1 v 0 a 0.63,0.63 0 0 0 0.49,0.62 v 0 a 1,1 0 0 0 0.54,0.81 c 0,0.16 0,0.26 0.16,0.3 a 0.58,0.58 0 0 0 0.43,0.64 v -0.05 a 1.31,1.31 0 0 0 0.6,1.16 v -0.05 a 2.34,2.34 0 0 0 0.64,1.66 v 0 a 2.4,2.4 0 0 0 0.51,1.84 0.26,0.26 0 0 0 0.07,0.4 8.69,8.69 0 0 0 0.49,3.61 14.58,14.58 0 0 0 0,4.12 10.66,10.66 0 0 0 -0.47,4 0.44,0.44 0 0 0 -0.08,0.52 3.51,3.51 0 0 0 -0.53,2.3 l -0.14,0.13 0.06,0.18 a 1.49,1.49 0 0 0 -0.46,1.36 0.21,0.21 0 0 0 -0.1,0.34 1.51,1.51 0 0 0 -0.55,1.33 v 0 a 1.23,1.23 0 0 0 -0.56,1.15 v 0 a 1.27,1.27 0 0 0 -0.61,1.12 v 0 a 1.29,1.29 0 0 0 -0.69,1.08 l 0.06,-0.05 a 0.68,0.68 0 0 0 -0.49,0.69 v 0 a 0.62,0.62 0 0 0 -0.49,0.62 v 0 a 2.94,2.94 0 0 0 -1.28,1.54 v 0 a 0.69,0.69 0 0 0 -0.57,0.62 v 0 a 0.7,0.7 0 0 0 -0.62,0.58 v 0 a 2.87,2.87 0 0 0 -1.54,1.26 h -0.06 a 0.58,0.58 0 0 0 -0.6,0.49 v 0 a 2.81,2.81 0 0 0 -1.71,1.1 v 0 a 1.16,1.16 0 0 0 -1.1,0.61 v 0 a 1.14,1.14 0 0 0 -1.15,0.54 v 0 a 2,2 0 0 0 -1.61,0.63 v 0 a 2,2 0 0 0 -1.64,0.54 v 0 a 0.57,0.57 0 0 0 -0.51,0 c -0.35,-0.06 -0.82,-0.1 -0.93,0.21 -0.11,0.31 0.32,0.53 0.62,0.66 a 3.68,3.68 0 0 0 0.75,0.13 l 0.62,0.11 v 0 a 1.22,1.22 0 0 0 1.12,0.52 v 0 a 1.23,1.23 0 0 0 1.07,0.56 v 0 a 1.23,1.23 0 0 0 1.06,0.65 v 0 a 0.65,0.65 0 0 0 0.65,0.5 v 0 a 0.55,0.55 0 0 0 0.56,0.47 l 0.08,0.06 a 1.25,1.25 0 0 0 0.92,0.76 h -0.06 a 0.77,0.77 0 0 0 0.61,0.61 l -0.05,-0.06 a 3.21,3.21 0 0 0 1.31,1.53 v 0 a 0.63,0.63 0 0 0 0.49,0.62 v 0 a 0.7,0.7 0 0 0 0.5,0.69 L 91.43,76.52 A 1.34,1.34 0 0 0 92,77.46 v 0 a 1.32,1.32 0 0 0 0.62,1.1 v 0 a 1.25,1.25 0 0 0 0.54,1.15 v 0 a 1.43,1.43 0 0 0 0.52,1.28 0.29,0.29 0 0 0 0.11,0.4 1.41,1.41 0 0 0 0.45,1.31 0.24,0.24 0 0 0 0.08,0.37 3.89,3.89 0 0 0 0.48,2.45 2.28,2.28 0 0 0 0.14,1.48 16.5,16.5 0 0 0 0,3.91 2.5,2.5 0 0 0 -0.1,1.53 5.57,5.57 0 0 0 -0.46,3 0.4,0.4 0 0 0 -0.07,0.49 3.49,3.49 0 0 0 -0.58,2.31 v 0 a 2.11,2.11 0 0 0 -0.56,1.71 v 0 a 1.17,1.17 0 0 0 -0.47,1.05 0.26,0.26 0 0 0 -0.13,0.37 1.49,1.49 0 0 0 -0.58,1.28 v 0 a 1.23,1.23 0 0 0 -0.59,1.15 v 0 a 0.57,0.57 0 0 0 -0.42,0.64 0.22,0.22 0 0 0 -0.15,0.32 0.87,0.87 0 0 0 -0.5,0.8 v 0 a 1.26,1.26 0 0 0 -0.69,1 v 0 a 0.68,0.68 0 0 0 -0.51,0.67 v 0 a 0.59,0.59 0 0 0 -0.49,0.61 v 0 a 2.8,2.8 0 0 0 -1.27,1.54 v 0 a 0.69,0.69 0 0 0 -0.57,0.63 v 0 a 0.68,0.68 0 0 0 -0.59,0.6 v 0 a 0.67,0.67 0 0 0 -0.6,0.58 v 0 a 0.68,0.68 0 0 0 -0.62,0.57 v 0 a 2.78,2.78 0 0 0 -1.54,1.28 v 0 a 0.58,0.58 0 0 0 -0.59,0.49 v 0 a 0.64,0.64 0 0 0 -0.64,0.51 v 0 a 1.16,1.16 0 0 0 -1,0.67 v 0 a 0.61,0.61 0 0 0 -0.64,0.47 v 0 a 1.17,1.17 0 0 0 -1.05,0.64 v 0 A 0.6,0.6 0 0 0 79,116 v 0 a 1.21,1.21 0 0 0 -1.1,0.63 v 0 a 1.18,1.18 0 0 0 -1.13,0.58 v 0 a 1.2,1.2 0 0 0 -1.16,0.55 v 0 a 2,2 0 0 0 -1.59,0.67 v 0 a 1.09,1.09 0 0 0 -1.15,0.48 v 0 a 1.94,1.94 0 0 0 -1.67,0.61 v 0 a 2.17,2.17 0 0 0 -1.79,0.55 h -0.24 l -0.19,0.15 a 1.88,1.88 0 0 0 -1.69,0.48 v 0 a 3.45,3.45 0 0 0 -2.38,0.53 l -0.22,-0.06 -0.18,0.13 a 4.87,4.87 0 0 0 -2.88,0.52 l -0.26,-0.07 -0.24,0.13 a 9.4,9.4 0 0 0 -4,0.48 l -1,0.08 a 7.52,7.52 0 0 0 -0.83,-0.09 q -26.39,0.06 -52.77,0.1 c -0.87,0 -1.89,0.42 -2.55,-0.59 a 0.33,0.33 0 0 0 0.07,-0.45 3.31,3.31 0 0 0 0.51,-2.35 0.29,0.29 0 0 0 0.07,-0.42 3.41,3.41 0 0 0 0.51,-2.39 0.22,0.22 0 0 0 0.06,-0.36 2.27,2.27 0 0 0 0.44,-1.88 l 0.13,-0.87 a 2.35,2.35 0 0 0 0.44,-1.93 0.41,0.41 0 0 0 0.08,-0.5 3.2,3.2 0 0 0 0.5,-2.31 0.33,0.33 0 0 0 0.07,-0.45 3.29,3.29 0 0 0 0.51,-2.36 0.26,0.26 0 0 0 0.07,-0.4 A 3.46,3.46 0 0 0 4,102.65 L 4.13,102.5 4,102.32 A 3.72,3.72 0 0 0 4.52,99.84 L 4.64,99.72 4.57,99.55 A 2.36,2.36 0 0 0 5,97.61 0.37,0.37 0 0 0 5.08,97.13 3.3,3.3 0 0 0 5.58,94.8 0.33,0.33 0 0 0 5.65,94.36 3.36,3.36 0 0 0 6.2,92 0.26,0.26 0 0 0 6.27,91.61 3.49,3.49 0 0 0 6.78,89.19 L 6.91,89 6.84,88.81 A 2.34,2.34 0 0 0 7.27,87 0.44,0.44 0 0 0 7.35,86.48 3.13,3.13 0 0 0 7.85,84.19 0.37,0.37 0 0 0 7.93,83.72 3.31,3.31 0 0 0 8.43,81.39 0.32,0.32 0 0 0 8.5,80.95 3.37,3.37 0 0 0 9,78.53 0.24,0.24 0 0 0 9.06,78.15 3.48,3.48 0 0 0 9.58,75.72 L 9.71,75.58 9.64,75.4 a 2.39,2.39 0 0 0 0.44,-1.92 0.41,0.41 0 0 0 0.07,-0.5 3.23,3.23 0 0 0 0.5,-2.3 0.35,0.35 0 0 0 0.07,-0.47 3.28,3.28 0 0 0 0.51,-2.34 0.31,0.31 0 0 0 0.07,-0.43 3.38,3.38 0 0 0 0.51,-2.38 0.23,0.23 0 0 0 0.06,-0.37 3.49,3.49 0 0 0 0.52,-2.44 L 12.51,62.12 12.45,62 a 2.42,2.42 0 0 0 0.45,-2 0.42,0.42 0 0 0 0.07,-0.51 3.22,3.22 0 0 0 0.5,-2.3 0.34,0.34 0 0 0 0.07,-0.46 3.29,3.29 0 0 0 0.51,-2.35 0.28,0.28 0 0 0 0.07,-0.41 3.43,3.43 0 0 0 0.51,-2.4 0.22,0.22 0 0 0 0.06,-0.36 3.57,3.57 0 0 0 0.52,-2.45 l 0.13,-0.13 -0.08,-0.16 a 2.4,2.4 0 0 0 0.44,-1.94 0.4,0.4 0 0 0 0.08,-0.49 3.27,3.27 0 0 0 0.5,-2.32 0.33,0.33 0 0 0 0.07,-0.45 3.31,3.31 0 0 0 0.51,-2.35 0.28,0.28 0 0 0 0.07,-0.41 3.45,3.45 0 0 0 0.51,-2.4 0.2,0.2 0 0 0 0.06,-0.34 3.71,3.71 0 0 0 0.5,-2.45 z m 12.35,66.31 a 10.34,10.34 0 0 0 1.4,0.21 c 6.44,0 12.88,0.08 19.32,0 a 28.76,28.76 0 0 0 11.22,-2 c 4.77,-2.08 6.94,-6.44 6.19,-12.49 -0.5,-4.09 -3.78,-7.18 -8.65,-7.81 -7.81,-1 -15.66,-0.25 -23.49,-0.47 -1.1,0 -1.38,0.55 -1.58,1.5 -1.39,6.94 -2.87,13.85 -4.39,21.06 z m 8.4,-40.06 c 7.58,-0.15 14.76,0.24 21.93,-0.25 a 23.14,23.14 0 0 0 5,-0.82 c 4.89,-1.44 7.37,-4.83 7.33,-10 a 6.61,6.61 0 0 0 -3.9,-6.29 15.59,15.59 0 0 0 -6.76,-1.58 c -6,-0.1 -12,0 -17.93,-0.14 a 1.76,1.76 0 0 0 -2.09,1.64 C 41.19,49.83 40,55.48 38.77,61.57 Z"
         id="path6" />
      <path
         class="cls-1"
         d="m 291.81,89.7 -0.25,-0.07 -0.24,0.12 -28.46,0.1 a 6.33,6.33 0 0 0 -1.38,0.11 c -0.43,0.11 -0.42,0.54 -0.43,0.91 a 0.3,0.3 0 0 0 -0.08,0.43 3.41,3.41 0 0 0 -0.51,2.37 0.23,0.23 0 0 0 -0.07,0.37 3.59,3.59 0 0 0 -0.52,2.43 v 0 a 3.15,3.15 0 0 0 -0.51,2.27 0.35,0.35 0 0 0 -0.07,0.47 3.28,3.28 0 0 0 -0.51,2.34 0.26,0.26 0 0 0 -0.07,0.4 3.47,3.47 0 0 0 -0.52,2.41 l -0.13,0.14 0.07,0.18 a 2.3,2.3 0 0 0 -0.43,1.91 0.4,0.4 0 0 0 -0.08,0.5 3.15,3.15 0 0 0 -0.51,2.31 0.31,0.31 0 0 0 -0.08,0.43 3.43,3.43 0 0 0 -0.51,2.38 0.22,0.22 0 0 0 -0.06,0.36 3.59,3.59 0 0 0 -0.53,2.43 v 0 a 3.13,3.13 0 0 0 -0.5,2.26 0.35,0.35 0 0 0 -0.08,0.47 3.28,3.28 0 0 0 -0.51,2.34 0.26,0.26 0 0 0 -0.07,0.4 c -0.5,0.52 -0.43,1.2 -0.56,1.83 v 0 c -4.58,0 -9.16,0.11 -13.73,0.08 -4.21,0 -8.41,0.2 -12.61,-0.14 l 0.07,0.06 a 1,1 0 0 0 -0.08,-0.51 l 0.13,-0.13 -0.07,-0.17 a 2.4,2.4 0 0 0 0.44,-1.94 0.41,0.41 0 0 0 0.07,-0.5 3.19,3.19 0 0 0 0.51,-2.31 0.34,0.34 0 0 0 0.07,-0.45 3.32,3.32 0 0 0 0.51,-2.36 0.25,0.25 0 0 0 0.07,-0.39 3.44,3.44 0 0 0 0.51,-2.42 l 0.13,-0.14 -0.07,-0.18 a 2.37,2.37 0 0 0 0.44,-1.91 0.41,0.41 0 0 0 0.08,-0.5 3.23,3.23 0 0 0 0.5,-2.31 0.33,0.33 0 0 0 0.07,-0.45 3.28,3.28 0 0 0 0.51,-2.36 0.26,0.26 0 0 0 0.07,-0.4 3.45,3.45 0 0 0 0.51,-2.4 l 0.13,-0.15 -0.06,-0.18 a 2.37,2.37 0 0 0 0.43,-1.91 0.42,0.42 0 0 0 0.08,-0.51 3.22,3.22 0 0 0 0.5,-2.3 0.33,0.33 0 0 0 0.08,-0.45 3.31,3.31 0 0 0 0.5,-2.35 0.29,0.29 0 0 0 0.07,-0.42 3.37,3.37 0 0 0 0.52,-2.39 0.21,0.21 0 0 0 0.06,-0.35 2.33,2.33 0 0 0 0.44,-1.89 0.45,0.45 0 0 0 0.07,-0.52 3.13,3.13 0 0 0 0.5,-2.29 0.37,0.37 0 0 0 0.08,-0.47 3.2,3.2 0 0 0 0.5,-2.33 0.31,0.31 0 0 0 0.07,-0.43 3.34,3.34 0 0 0 0.52,-2.38 0.22,0.22 0 0 0 0.06,-0.36 2.26,2.26 0 0 0 0.43,-1.88 c 0.05,-0.29 0.09,-0.58 0.14,-0.87 A 2.4,2.4 0 0 0 238,74 a 0.36,0.36 0 0 0 0.07,-0.47 3.2,3.2 0 0 0 0.5,-2.33 0.32,0.32 0 0 0 0.08,-0.44 3.37,3.37 0 0 0 0.51,-2.37 0.23,0.23 0 0 0 0.06,-0.37 3.49,3.49 0 0 0 0.52,-2.44 l 0.13,-0.13 -0.08,-0.17 a 2.36,2.36 0 0 0 0.45,-1.94 0.37,0.37 0 0 0 0.07,-0.48 3.18,3.18 0 0 0 0.5,-2.32 0.33,0.33 0 0 0 0.08,-0.45 3.28,3.28 0 0 0 0.51,-2.36 0.25,0.25 0 0 0 0.07,-0.39 A 3.49,3.49 0 0 0 242,55 l 0.13,-0.13 -0.07,-0.17 a 2.44,2.44 0 0 0 0.44,-1.94 0.41,0.41 0 0 0 0.07,-0.5 3.18,3.18 0 0 0 0.51,-2.3 0.33,0.33 0 0 0 0.07,-0.45 3.29,3.29 0 0 0 0.51,-2.36 0.26,0.26 0 0 0 0.07,-0.4 3.41,3.41 0 0 0 0.51,-2.41 l 0.13,-0.15 -0.07,-0.18 a 2.34,2.34 0 0 0 0.44,-1.91 0.41,0.41 0 0 0 0.08,-0.5 3.17,3.17 0 0 0 0.5,-2.3 0.33,0.33 0 0 0 0.07,-0.46 3.25,3.25 0 0 0 0.51,-2.35 0.27,0.27 0 0 0 0.07,-0.4 3.49,3.49 0 0 0 0.52,-2.41 l 0.12,-0.15 -0.06,-0.18 a 2.37,2.37 0 0 0 0.43,-1.91 0.41,0.41 0 0 0 0.08,-0.51 3.19,3.19 0 0 0 0.5,-2.29 0.35,0.35 0 0 0 0.08,-0.46 3.31,3.31 0 0 0 0.5,-2.35 0.29,0.29 0 0 0 0.07,-0.42 3.36,3.36 0 0 0 0.52,-2.39 l 0.12,-0.14 -0.07,-0.17 0.62,-0.77 c 11.82,0 23.64,0.06 35.47,0.06 5.49,0 11,0 16.46,-0.05 a 7.77,7.77 0 0 0 3.51,0.46 l 0.89,0.12 a 2.49,2.49 0 0 0 1.92,0.48 0.24,0.24 0 0 0 0.37,0.08 1.38,1.38 0 0 0 1.32,0.45 l 0.23,0.15 h 0.27 v 0 a 1.18,1.18 0 0 0 1.19,0.48 v 0 a 1.19,1.19 0 0 0 1.1,0.51 c 0.06,0.15 0.16,0.19 0.32,0.12 a 0.79,0.79 0 0 0 0.8,0.44 l 0.11,0.15 h 0.18 a 0.87,0.87 0 0 0 0.82,0.49 v 0 a 1.25,1.25 0 0 0 1.06,0.66 v 0 a 0.62,0.62 0 0 0 0.65,0.48 v 0 a 1.24,1.24 0 0 0 1,0.72 v 0 a 0.67,0.67 0 0 0 0.62,0.51 v 0 a 0.7,0.7 0 0 0 0.63,0.56 v 0 a 0.61,0.61 0 0 0 0.59,0.56 v 0 a 0.68,0.68 0 0 0 0.58,0.57 v 0 a 0.66,0.66 0 0 0 0.56,0.6 v 0 a 0.69,0.69 0 0 0 0.57,0.62 v 0 a 0.72,0.72 0 0 0 0.56,0.65 l -0.05,-0.05 a 1.33,1.33 0 0 0 0.74,1 0.63,0.63 0 0 0 0.5,0.63 v 0 a 0.68,0.68 0 0 0 0.5,0.68 l -0.06,-0.06 a 1.29,1.29 0 0 0 0.68,1.08 v 0 a 1.23,1.23 0 0 0 0.61,1.08 v 0 a 1.19,1.19 0 0 0 0.56,1.09 v 0 a 1.24,1.24 0 0 0 0.52,1.14 v 0 a 1.26,1.26 0 0 0 0.5,1.21 v 0 l 0.15,0.51 a 1.3,1.3 0 0 0 0.46,1.26 0.31,0.31 0 0 0 0.1,0.43 2.16,2.16 0 0 0 0.48,1.76 0.4,0.4 0 0 0 0.08,0.49 3.55,3.55 0 0 0 0.46,2.38 c 0,0.33 0.06,0.66 0.1,1 v 10.1 0.55 a 0.33,0.33 0 0 0 -0.05,0.46 5.21,5.21 0 0 0 -0.49,2.91 0.33,0.33 0 0 0 -0.07,0.45 3.64,3.64 0 0 0 -0.58,2.34 v 0 a 2,2 0 0 0 -0.53,1.72 v 0 a 2.13,2.13 0 0 0 -0.61,1.67 v 0 a 1.19,1.19 0 0 0 -0.51,1.16 v 0 a 1.17,1.17 0 0 0 -0.52,1.1 0.41,0.41 0 0 0 -0.2,0.47 v 0 a 0.63,0.63 0 0 0 -0.42,0.7 v 0.06 a 1.2,1.2 0 0 0 -0.59,1.06 1.23,1.23 0 0 0 -0.64,1.07 v 0 a 0.59,0.59 0 0 0 -0.47,0.64 v 0 a 1.2,1.2 0 0 0 -0.68,1 v 0 a 0.66,0.66 0 0 0 -0.52,0.65 v 0 a 0.58,0.58 0 0 0 -0.5,0.6 v 0 a 2.74,2.74 0 0 0 -1.29,1.51 v 0 a 0.72,0.72 0 0 0 -0.59,0.61 v 0 a 0.68,0.68 0 0 0 -0.6,0.6 v 0 A 0.69,0.69 0 0 0 317,79 v 0 a 2.86,2.86 0 0 0 -1.52,1.28 v 0 a 0.57,0.57 0 0 0 -0.59,0.51 v 0 a 0.64,0.64 0 0 0 -0.64,0.51 v 0 a 2.67,2.67 0 0 0 -1.66,1.18 v 0 a 2.64,2.64 0 0 0 -1.71,1.1 v 0 a 1.13,1.13 0 0 0 -1.07,0.62 v 0 a 1.12,1.12 0 0 0 -1.08,0.58 v 0 a 1.11,1.11 0 0 0 -1.05,0.54 h -0.06 a 1.11,1.11 0 0 0 -1.1,0.51 v 0 a 1.11,1.11 0 0 0 -1.14,0.51 v 0 a 2,2 0 0 0 -1.61,0.61 v 0 a 1.38,1.38 0 0 0 -1.33,0.47 0.21,0.21 0 0 0 -0.34,0.1 2,2 0 0 0 -1.67,0.52 v 0 a 2.31,2.31 0 0 0 -1.86,0.5 l -0.2,-0.06 -0.16,0.13 a 3.5,3.5 0 0 0 -2.36,0.51 0.32,0.32 0 0 0 -0.45,0.07 6.86,6.86 0 0 0 -3.59,0.51 z M 265.62,68.4 c 6.11,0 12,0 17.87,0 a 36,36 0 0 0 6.13,-0.52 c 7.35,-1.23 11.16,-5.45 11.6,-12.88 0.35,-5.79 -2.15,-9.25 -7.75,-10.6 a 20.71,20.71 0 0 0 -4.71,-0.71 c -5.42,0 -10.84,0 -16.26,-0.13 -1.44,0 -1.89,0.55 -2.13,1.88 -0.54,3 -1.28,6 -1.91,9 -0.95,4.56 -1.86,9.15 -2.84,13.96 z"
         id="path8" />
      <path
         class="cls-1"
         d="m 171.22,148.11 a 5.66,5.66 0 0 0 -2.59,-0.08 12.66,12.66 0 0 0 -4.7,-0.49 l -0.22,-0.13 -0.23,0.07 a 5.13,5.13 0 0 0 -2.93,-0.52 l -0.14,-0.13 -0.18,0.07 a 2.41,2.41 0 0 0 -1.92,-0.49 l -0.14,-0.13 -0.19,0.05 a 1.38,1.38 0 0 0 -1.34,-0.44 l -0.18,-0.14 h -0.23 a 1.33,1.33 0 0 0 -1.28,-0.47 l -0.13,-0.14 h -0.18 a 1.5,1.5 0 0 0 -1.34,-0.54 v 0 a 1.11,1.11 0 0 0 -1.13,-0.53 v 0 a 1.15,1.15 0 0 0 -1.11,-0.55 v 0 a 1.2,1.2 0 0 0 -1.1,-0.59 v 0 a 3,3 0 0 0 -1.69,-1.13 v 0 a 0.61,0.61 0 0 0 -0.61,-0.51 v 0 a 9.66,9.66 0 0 0 -2.23,-2.19 v 0 a 0.55,0.55 0 0 0 -0.49,-0.58 v 0 a 0.68,0.68 0 0 0 -0.52,-0.65 l 0.05,0.05 a 1.23,1.23 0 0 0 -0.68,-1.05 v 0 a 0.66,0.66 0 0 0 -0.45,-0.69 h 0.05 a 1.31,1.31 0 0 0 -0.62,-1.14 v 0 a 2.25,2.25 0 0 0 -0.69,-1.64 v 0 a 2.17,2.17 0 0 0 -0.55,-1.7 v 0 A 3.87,3.87 0 0 0 141,129.28 l -0.1,-1 c 0,-0.55 0.06,-1.11 0,-1.66 -0.15,-2.63 0.21,-2.34 2.19,-2.34 h 19.73 a 4.6,4.6 0 0 1 2.17,0.32 0.94,0.94 0 0 0 0.07,0.89 4.7,4.7 0 0 0 1.54,4.05 v 0 a 1.55,1.55 0 0 0 1.16,1.19 v -0.05 a 0.67,0.67 0 0 0 0.68,0.5 v 0 a 0.5,0.5 0 0 0 0.6,0.43 0.28,0.28 0 0 0 0.38,0.17 1.3,1.3 0 0 0 1.3,0.5 v 0 a 2.59,2.59 0 0 0 2.23,0.49 10.1,10.1 0 0 0 4,0 c 3.08,0 5.82,-0.81 7.89,-3.26 v 0 a 0.67,0.67 0 0 0 0.6,-0.57 v 0 a 0.68,0.68 0 0 0 0.61,-0.58 v 0 c 2.63,-2.21 3.11,-5.42 3.9,-8.48 v 0 a 1.92,1.92 0 0 0 0.5,-1.72 0.33,0.33 0 0 0 0.07,-0.45 17.9,17.9 0 0 0 1.16,-5.11 4.13,4.13 0 0 0 0.44,-0.93 c 0.07,-0.38 0.33,-1 -0.24,-1.09 -0.57,-0.09 -0.69,0.44 -0.81,0.87 l -3.45,3.28 v 0 a 13.81,13.81 0 0 0 -3.26,1.74 h -0.06 a 1.12,1.12 0 0 0 -1.14,0.5 v 0 a 1.9,1.9 0 0 0 -1.67,0.58 v 0 a 2.43,2.43 0 0 0 -1.9,0.53 l -0.17,-0.07 -0.14,0.13 a 5.52,5.52 0 0 0 -2.94,0.51 l -0.23,-0.07 -0.2,0.12 h -6.71 v 0 a 6.84,6.84 0 0 0 -3.37,-0.57 v 0 a 3.23,3.23 0 0 0 -2.23,-0.6 v 0 a 2,2 0 0 0 -1.68,-0.6 v 0 a 27.61,27.61 0 0 0 -4.46,-2.29 v 0 a 0.64,0.64 0 0 0 -0.66,-0.48 v 0 a 2.7,2.7 0 0 0 -1.63,-1.21 v 0 a 0.68,0.68 0 0 0 -0.63,-0.56 v 0 a 2,2 0 0 0 -1.13,-1.07 0.66,0.66 0 0 0 -0.58,-0.57 v 0 a 0.6,0.6 0 0 0 -0.56,-0.58 v 0 a 0.67,0.67 0 0 0 -0.56,-0.63 v 0 a 0.69,0.69 0 0 0 -0.54,-0.65 v 0 a 1.24,1.24 0 0 0 -0.73,-1 v 0 a 0.63,0.63 0 0 0 -0.49,-0.64 v 0 a 1.21,1.21 0 0 0 -0.64,-1 v 0 a 0.63,0.63 0 0 0 -0.45,-0.68 v 0 a 1.24,1.24 0 0 0 -0.62,-1.13 v 0 a 1.27,1.27 0 0 0 -0.57,-1.17 v 0 A 2.16,2.16 0 0 0 147,101.63 v 0 a 1.54,1.54 0 0 0 -0.49,-1.37 l 0.06,-0.18 -0.14,-0.12 a 2.35,2.35 0 0 0 -0.5,-1.84 0.28,0.28 0 0 0 -0.08,-0.41 3.8,3.8 0 0 0 -0.47,-2.49 2.16,2.16 0 0 0 -0.12,-1.44 v -7.39 a 2.46,2.46 0 0 0 0.1,-1.54 7.28,7.28 0 0 0 0.49,-3.51 0.35,0.35 0 0 0 0.06,-0.47 3.32,3.32 0 0 0 0.48,-2.34 0.32,0.32 0 0 0 0.08,-0.45 2.16,2.16 0 0 0 0.48,-1.79 0.36,0.36 0 0 0 0.09,-0.45 2.22,2.22 0 0 0 0.53,-1.8 v 0 a 2.05,2.05 0 0 0 0.57,-1.7 v 0 a 2.1,2.1 0 0 0 0.61,-1.68 v 0 a 1.21,1.21 0 0 0 0.5,-1.19 v 0 a 2.17,2.17 0 0 0 0.69,-1.61 v 0.06 a 1.35,1.35 0 0 0 0.58,-1.19 v 0 a 1.32,1.32 0 0 0 0.62,-1.15 l -0.05,0.07 a 0.65,0.65 0 0 0 0.43,-0.7 v 0 a 1.22,1.22 0 0 0 0.61,-1 v 0 a 1.31,1.31 0 0 0 0.69,-1.07 l -0.06,0.06 a 0.67,0.67 0 0 0 0.49,-0.68 v 0 a 1.28,1.28 0 0 0 0.72,-1 l -0.06,0.06 a 0.71,0.71 0 0 0 0.53,-0.67 v 0 A 0.68,0.68 0 0 0 155,60 v 0 a 0.56,0.56 0 0 0 0.5,-0.58 v 0 a 2.91,2.91 0 0 0 1.31,-1.52 h -0.05 a 0.71,0.71 0 0 0 0.59,-0.63 l -0.05,0.05 a 0.73,0.73 0 0 0 0.6,-0.62 v 0.05 a 0.72,0.72 0 0 0 0.63,-0.58 v 0 a 0.73,0.73 0 0 0 0.61,-0.61 v 0.06 a 1.25,1.25 0 0 0 0.92,-0.76 l 0.07,-0.06 a 0.53,0.53 0 0 0 0.54,-0.48 v 0 a 0.62,0.62 0 0 0 0.59,-0.51 v 0 a 0.69,0.69 0 0 0 0.65,-0.53 v 0 a 1.26,1.26 0 0 0 1,-0.7 h 0.06 a 0.61,0.61 0 0 0 0.62,-0.47 v 0 a 1.23,1.23 0 0 0 1,-0.63 h 0.06 a 0.6,0.6 0 0 0 0.66,-0.45 v 0 a 1.24,1.24 0 0 0 1.12,-0.62 v 0 a 1.23,1.23 0 0 0 1.14,-0.57 v 0 a 1.37,1.37 0 0 0 1.26,-0.55 0.3,0.3 0 0 0 0.4,-0.13 1.22,1.22 0 0 0 1.17,-0.47 0.46,0.46 0 0 0 0.52,-0.12 1.3,1.3 0 0 0 1.22,-0.42 0.36,0.36 0 0 0 0.46,-0.1 2.32,2.32 0 0 0 1.82,-0.45 l 1,-0.13 a 8.17,8.17 0 0 0 3.5,-0.44 17.39,17.39 0 0 0 4.67,0 8,8 0 0 0 3.59,0.44 l 1,0.12 a 2.3,2.3 0 0 0 1.84,0.45 0.38,0.38 0 0 0 0.47,0.1 1.28,1.28 0 0 0 1.21,0.42 0.44,0.44 0 0 0 0.51,0.12 1.23,1.23 0 0 0 1.18,0.48 0.24,0.24 0 0 0 0.35,0.13 0.74,0.74 0 0 0 0.77,0.41 0.26,0.26 0 0 0 0.37,0.14 0.76,0.76 0 0 0 0.76,0.45 h 0.07 a 1.21,1.21 0 0 0 1,0.62 v 0 a 0.6,0.6 0 0 0 0.61,0.47 h 0.06 a 1.3,1.3 0 0 0 1,0.73 v -0.06 a 0.72,0.72 0 0 0 0.64,0.57 v 0 a 0.72,0.72 0 0 0 0.61,0.6 v -0.05 a 0.72,0.72 0 0 0 0.59,0.63 l -0.05,-0.05 a 0.72,0.72 0 0 0 0.57,0.65 l -0.06,-0.06 a 1.26,1.26 0 0 0 0.74,1 v 0 a 0.66,0.66 0 0 0 0.49,0.66 h -0.05 a 1.3,1.3 0 0 0 0.65,1.1 v 0 a 1.32,1.32 0 0 0 0.58,1.12 v 0 c 0,0.31 -0.07,0.77 0.41,0.73 0.24,0 0.31,-0.4 0.24,-0.69 v 0 a 3,3 0 0 0 0.49,-2.32 0.26,0.26 0 0 0 0.06,-0.4 3.33,3.33 0 0 0 0.48,-2.4 0.33,0.33 0 0 0 0.07,-0.46 3.26,3.26 0 0 0 0.48,-2.34 c 0.42,-1.37 1.56,-1.08 2.56,-1.08 h 18.78 1.68 c 0,0.74 0,1.48 0,2.22 a 0.27,0.27 0 0 0 -0.07,0.41 3.43,3.43 0 0 0 -0.5,2.4 0.24,0.24 0 0 0 -0.07,0.38 3.46,3.46 0 0 0 -0.51,2.43 l -0.13,0.14 0.07,0.18 a 2.33,2.33 0 0 0 -0.43,1.91 0.42,0.42 0 0 0 -0.08,0.51 3.17,3.17 0 0 0 -0.5,2.3 0.36,0.36 0 0 0 -0.08,0.47 3.36,3.36 0 0 0 -0.5,2.33 0.32,0.32 0 0 0 -0.07,0.44 3.35,3.35 0 0 0 -0.5,2.37 0.25,0.25 0 0 0 -0.07,0.39 3.5,3.5 0 0 0 -0.51,2.42 0.22,0.22 0 0 0 -0.06,0.36 2.21,2.21 0 0 0 -0.43,1.87 0.45,0.45 0 0 0 -0.08,0.53 3.23,3.23 0 0 0 -0.5,2.28 0.41,0.41 0 0 0 -0.07,0.5 3.15,3.15 0 0 0 -0.5,2.31 0.33,0.33 0 0 0 -0.08,0.45 3.32,3.32 0 0 0 -0.5,2.36 0.27,0.27 0 0 0 -0.07,0.41 3.38,3.38 0 0 0 -0.51,2.4 0.22,0.22 0 0 0 -0.06,0.36 2.26,2.26 0 0 0 -0.44,1.87 c 0,0.3 -0.09,0.59 -0.13,0.89 a 2.36,2.36 0 0 0 -0.44,1.92 0.43,0.43 0 0 0 -0.08,0.5 3.18,3.18 0 0 0 -0.5,2.3 0.37,0.37 0 0 0 -0.07,0.47 3.28,3.28 0 0 0 -0.5,2.34 0.3,0.3 0 0 0 -0.07,0.43 3.34,3.34 0 0 0 -0.51,2.38 0.24,0.24 0 0 0 -0.07,0.38 3.52,3.52 0 0 0 -0.5,2.43 c -0.15,0.09 -0.18,0.2 -0.07,0.34 a 2.29,2.29 0 0 0 -0.43,1.89 0.44,0.44 0 0 0 -0.08,0.52 3.19,3.19 0 0 0 -0.49,2.29 0.4,0.4 0 0 0 -0.08,0.49 3.17,3.17 0 0 0 -0.5,2.32 0.31,0.31 0 0 0 -0.08,0.44 3.41,3.41 0 0 0 -0.51,2.37 c -0.15,0.09 -0.18,0.2 -0.07,0.34 a 2.32,2.32 0 0 0 -0.47,1.9 0.25,0.25 0 0 0 -0.09,0.38 2.38,2.38 0 0 0 -0.49,1.87 0.21,0.21 0 0 0 -0.08,0.34 2.38,2.38 0 0 0 -0.52,1.89 v 0 a 2,2 0 0 0 -0.53,1.72 l -0.14,0.13 0.06,0.18 a 1.5,1.5 0 0 0 -0.46,1.37 0.22,0.22 0 0 0 -0.1,0.35 1.47,1.47 0 0 0 -0.48,1.34 l -0.14,0.12 0.05,0.18 a 1.51,1.51 0 0 0 -0.51,1.37 v 0 a 1.16,1.16 0 0 0 -0.47,1.14 0.3,0.3 0 0 0 -0.13,0.41 1.38,1.38 0 0 0 -0.53,1.27 v 0 a 1.19,1.19 0 0 0 -0.52,1.15 v 0 a 1.17,1.17 0 0 0 -0.53,1.11 v 0 a 1.22,1.22 0 0 0 -0.54,1.08 v 0 a 1.19,1.19 0 0 0 -0.57,1.08 v 0 a 1.25,1.25 0 0 0 -0.61,1.09 v 0 A 1.24,1.24 0 0 0 207,134 v -0.06 a 0.66,0.66 0 0 0 -0.48,0.68 v 0 a 1.24,1.24 0 0 0 -0.7,1 v 0 a 0.68,0.68 0 0 0 -0.51,0.67 v 0 a 0.6,0.6 0 0 0 -0.5,0.61 v 0 a 2.72,2.72 0 0 0 -1.28,1.53 v 0 a 0.71,0.71 0 0 0 -0.59,0.61 v 0 a 0.69,0.69 0 0 0 -0.6,0.6 v 0 A 2.78,2.78 0 0 0 201,140.8 h -0.06 a 0.58,0.58 0 0 0 -0.59,0.49 v 0 a 0.64,0.64 0 0 0 -0.66,0.49 v 0 a 1.2,1.2 0 0 0 -1,0.68 v 0 a 2.75,2.75 0 0 0 -1.76,1 v 0 a 1.26,1.26 0 0 0 -1.14,0.57 l 0.12,0.08 -0.11,-0.1 a 2.08,2.08 0 0 0 -1.58,0.69 v 0 a 1.1,1.1 0 0 0 -1.16,0.47 v 0 a 2.46,2.46 0 0 0 -1.8,0.59 h -0.22 l -0.18,0.14 a 1.93,1.93 0 0 0 -1.68,0.5 v 0 a 3.28,3.28 0 0 0 -2.34,0.54 l -0.24,-0.06 -0.2,0.13 a 5,5 0 0 0 -2.92,0.49 l -0.24,-0.07 -0.21,0.12 a 15.63,15.63 0 0 0 -5.27,0.51 5.53,5.53 0 0 0 -2.59,0.06 16.07,16.07 0 0 0 -3.95,-0.01 z m 27,-67.81 a 18,18 0 0 0 -2.09,-9.44 9.53,9.53 0 0 0 -8.39,-5.21 c -6,-0.28 -10.73,2 -14,7.06 a 28.25,28.25 0 0 0 -4.09,19.87 c 0.76,5.53 3.81,9 8.58,9.81 5.84,1 11,-0.56 14.77,-5.32 3.77,-4.76 5.31,-10.21 5.26,-16.77 z"
         id="path10" />
      <path
         class="cls-1"
         d="m 367.27,47.16 a 37.42,37.42 0 0 0 6.94,0 20.83,20.83 0 0 0 5.79,0.45 2.12,2.12 0 0 0 1.45,0.11 3.61,3.61 0 0 0 2.47,0.43 l 1,0.13 a 2.26,2.26 0 0 0 1.84,0.43 l 0.55,0.09 a 2.09,2.09 0 0 0 1.7,0.48 0.37,0.37 0 0 0 0.47,0.1 1.23,1.23 0 0 0 1.22,0.45 l 0.21,0.14 h 0.26 a 1.3,1.3 0 0 0 1.21,0.48 l 0.14,0.15 h 0.21 a 0.73,0.73 0 0 0 0.78,0.39 0.45,0.45 0 0 0 0.49,0.17 v 0 a 0.51,0.51 0 0 0 0.63,0.4 0.44,0.44 0 0 0 0.49,0.2 v 0 a 0.6,0.6 0 0 0 0.66,0.44 h 0.07 a 1.16,1.16 0 0 0 1,0.62 v 0 a 0.59,0.59 0 0 0 0.61,0.47 h 0.06 a 1.16,1.16 0 0 0 0.94,0.71 v 0 a 0.71,0.71 0 0 0 0.65,0.57 v 0 a 0.71,0.71 0 0 0 0.61,0.59 v 0 a 0.73,0.73 0 0 0 0.58,0.64 l -0.06,-0.06 a 3.2,3.2 0 0 0 1.24,1.63 v 0 a 0.94,0.94 0 0 0 0.52,0.82 c -0.07,0.15 0,0.25 0.14,0.3 a 0.79,0.79 0 0 0 0.42,0.78 0.23,0.23 0 0 0 0.13,0.34 1.2,1.2 0 0 0 0.48,1.15 v 0 a 2.67,2.67 0 0 0 0.53,1.91 l -0.07,0.18 0.13,0.14 0.07,0.57 v 7.28 l -0.09,0.93 a 5.28,5.28 0 0 0 -0.47,3 l -0.07,0.54 v 0 a 4.6,4.6 0 0 0 -0.53,2.84 0.25,0.25 0 0 0 -0.06,0.39 3.49,3.49 0 0 0 -0.49,2.42 0.26,0.26 0 0 0 -0.07,0.4 3.58,3.58 0 0 0 -0.51,2.41 q -0.22,0.14 -0.06,0.36 a 2.31,2.31 0 0 0 -0.46,1.88 l -0.09,0.53 v 0 a 1.92,1.92 0 0 0 -0.45,1.73 l -0.09,0.55 v 0 a 3.15,3.15 0 0 0 -0.54,2.27 0.34,0.34 0 0 0 -0.11,0.45 2.15,2.15 0 0 0 -0.43,1.79 0.25,0.25 0 0 0 -0.08,0.39 2.29,2.29 0 0 0 -0.47,1.85 0.32,0.32 0 0 0 -0.08,0.44 2.13,2.13 0 0 0 -0.46,1.8 0.37,0.37 0 0 0 -0.09,0.48 2.06,2.06 0 0 0 -0.46,1.78 l -0.1,0.54 v 0 a 3,3 0 0 0 -0.54,2.28 0.21,0.21 0 0 0 -0.06,0.35 2.27,2.27 0 0 0 -0.48,1.89 0.27,0.27 0 0 0 -0.08,0.4 2.2,2.2 0 0 0 -0.45,1.85 l -0.08,0.54 v 0 a 3,3 0 0 0 -0.48,2.29 l -0.07,0.56 -0.12,0.15 0.07,0.18 a 4.8,4.8 0 0 0 -0.45,3 2.42,2.42 0 0 0 -0.12,1.59 v 0 a 2.64,2.64 0 0 0 0,2.46 c 0,0.33 0.05,0.65 0.08,1 a 2.76,2.76 0 0 0 0.51,2.27 v 0 c 0.11,1.08 -0.56,1.17 -1.4,1.16 l -22.12,-0.13 0.06,0.05 a 8.41,8.41 0 0 0 -0.6,-2.92 1.06,1.06 0 0 0 -0.05,-1 v -1.68 c 0.08,-0.33 0.2,-0.71 -0.28,-0.76 -0.1,0 -0.26,0.39 -0.39,0.6 v 0 a 0.69,0.69 0 0 0 -0.54,0.66 v 0 a 0.67,0.67 0 0 0 -0.57,0.61 v 0 a 0.62,0.62 0 0 0 -0.57,0.57 v 0 a 0.67,0.67 0 0 0 -0.6,0.57 v 0 a 0.69,0.69 0 0 0 -0.63,0.55 v 0 a 1.28,1.28 0 0 0 -1,0.72 0.6,0.6 0 0 0 -0.64,0.49 v 0 a 1.24,1.24 0 0 0 -1.07,0.62 1.29,1.29 0 0 0 -1.1,0.59 1.19,1.19 0 0 0 -1.12,0.52 h -0.05 a 1.11,1.11 0 0 0 -1.15,0.48 v 0 a 2.32,2.32 0 0 0 -1.75,0.56 0.32,0.32 0 0 0 -0.43,0.11 2.29,2.29 0 0 0 -1.87,0.47 L 357.22,124.19 357,124 a 7.61,7.61 0 0 0 -3.53,0.5 1.05,1.05 0 0 0 -1,0.08 h -6.73 -0.56 l -0.23,-0.12 -0.24,0.08 a 7.2,7.2 0 0 0 -3.46,-0.52 l -0.16,-0.14 -0.2,0.07 a 2.35,2.35 0 0 0 -1.88,-0.48 l -0.15,-0.14 h -0.19 a 1.42,1.42 0 0 0 -1.34,-0.46 0.34,0.34 0 0 0 -0.46,-0.15 v 0 a 1.17,1.17 0 0 0 -1.17,-0.5 v 0 a 1.16,1.16 0 0 0 -1.13,-0.55 v 0 a 1.16,1.16 0 0 0 -1.1,-0.6 v 0 a 0.56,0.56 0 0 0 -0.64,-0.46 h -0.07 a 1.15,1.15 0 0 0 -1,-0.64 v 0 a 0.6,0.6 0 0 0 -0.61,-0.5 v 0 a 10.76,10.76 0 0 0 -2.23,-2.19 v 0 a 0.63,0.63 0 0 0 -0.5,-0.61 v 0 a 0.7,0.7 0 0 0 -0.49,-0.69 v 0 a 1.24,1.24 0 0 0 -0.65,-1 v 0 a 1.26,1.26 0 0 0 -0.58,-1.16 v 0 a 2.3,2.3 0 0 0 -0.64,-1.65 v 0 a 2.35,2.35 0 0 0 -0.53,-1.78 0.36,0.36 0 0 0 -0.08,-0.46 4.06,4.06 0 0 0 -0.46,-2.51 3.8,3.8 0 0 0 -0.11,-2 8.43,8.43 0 0 0 0,-2.79 4,4 0 0 0 0.12,-2 4,4 0 0 0 0.46,-2.5 0.34,0.34 0 0 0 0.08,-0.45 2.2,2.2 0 0 0 0.54,-1.79 v 0 a 1.19,1.19 0 0 0 0.48,-1.13 0.3,0.3 0 0 0 0.13,-0.4 1.46,1.46 0 0 0 0.6,-1.24 v 0 a 1.35,1.35 0 0 0 0.64,-1.15 v 0 a 0.63,0.63 0 0 0 0.45,-0.67 v 0 a 1.21,1.21 0 0 0 0.68,-1 v 0 a 0.7,0.7 0 0 0 0.53,-0.67 v 0 a 0.66,0.66 0 0 0 0.53,-0.61 v 0 a 0.56,0.56 0 0 0 0.51,-0.56 v -0.05 a 0.57,0.57 0 0 0 0.51,-0.51 v 0 a 0.59,0.59 0 0 0 0.57,-0.52 v 0 a 0.64,0.64 0 0 0 0.6,-0.52 v 0 a 0.7,0.7 0 0 0 0.66,-0.52 h -0.06 a 1.3,1.3 0 0 0 1,-0.69 v 0 a 0.8,0.8 0 0 0 0.76,-0.48 H 335 l 0.15,-0.16 a 0.52,0.52 0 0 0 0.62,-0.43 v 0 a 1.34,1.34 0 0 0 1.19,-0.58 1.08,1.08 0 0 0 1.06,-0.46 l 0.5,-0.2 a 1.15,1.15 0 0 0 1.14,-0.48 v 0 a 2.05,2.05 0 0 0 1.67,-0.57 v 0 a 2.07,2.07 0 0 0 1.71,-0.55 0.46,0.46 0 0 0 0.52,-0.1 10.43,10.43 0 0 0 3.58,-1 l 0.92,-0.14 a 3.48,3.48 0 0 0 2.32,-0.45 l 1,-0.11 a 5,5 0 0 0 2.94,-0.44 2.65,2.65 0 0 0 1.55,-0.12 7,7 0 0 0 3.54,-0.43 l 3.76,-0.14 c 1.94,0.06 3.9,0.28 5.79,-0.42 a 2.22,2.22 0 0 0 1.5,-0.12 2.82,2.82 0 0 0 2.3,-0.47 0.43,0.43 0 0 0 0.51,-0.1 1.37,1.37 0 0 0 1.31,-0.42 0.23,0.23 0 0 0 0.36,-0.1 1.09,1.09 0 0 0 1.21,-0.45 v 0 a 1,1 0 0 0 1.09,-0.65 v 0 a 0.66,0.66 0 0 0 0.61,-0.56 v 0 a 0.66,0.66 0 0 0 0.59,-0.6 v 0 c 2.46,-2.12 2.69,-4.75 1.7,-7.64 l 0.07,-0.16 -0.21,0.18 a 4.54,4.54 0 0 0 -3.85,-3.48 v 0 c -0.46,-0.6 -1.11,-0.53 -1.76,-0.49 l -0.14,-0.13 -0.17,0.09 a 13.42,13.42 0 0 0 -7.69,0 l -0.22,-0.07 -0.2,0.13 a 2.62,2.62 0 0 0 -2.2,0.55 h -0.06 a 1,1 0 0 0 -1.15,0.49 v 0 a 1.11,1.11 0 0 0 -1.12,0.59 v 0 a 0.62,0.62 0 0 0 -0.66,0.49 v 0 a 1.56,1.56 0 0 0 -1.18,1.15 h 0.05 a 0.66,0.66 0 0 0 -0.52,0.68 v 0 a 1.16,1.16 0 0 0 -0.64,1.13 V 68.38 A 1.16,1.16 0 0 0 358,69.59 v 0 c -0.64,0.62 -0.53,1.46 -0.63,2.24 l 0.08,-0.07 a 10.5,10.5 0 0 1 -3.06,0.2 c -5.69,0 -11.37,0 -17.05,0 -0.88,0 -1.86,-0.4 -2.63,0.4 0.32,-0.41 -0.12,-0.66 -0.22,-1 a 3.51,3.51 0 0 0 0.56,-2.33 v 0 a 2.1,2.1 0 0 0 0.53,-1.71 0.2,0.2 0 0 0 0.08,-0.33 1.51,1.51 0 0 0 0.52,-1.35 v 0 a 1.16,1.16 0 0 0 0.5,-1.15 0.2,0.2 0 0 0 0.11,-0.32 0.77,0.77 0 0 0 0.41,-0.79 0.27,0.27 0 0 0 0.15,-0.37 0.73,0.73 0 0 0 0.43,-0.75 0.4,0.4 0 0 0 0.22,-0.45 v 0 a 0.68,0.68 0 0 0 0.45,-0.71 v 0 a 1.32,1.32 0 0 0 0.67,-1.08 v 0.06 a 0.66,0.66 0 0 0 0.5,-0.66 v 0 a 1.3,1.3 0 0 0 0.74,-1 l -0.06,0.06 a 0.76,0.76 0 0 0 0.56,-0.67 v 0.05 a 0.7,0.7 0 0 0 0.57,-0.63 v 0 a 0.69,0.69 0 0 0 0.58,-0.6 v 0 a 0.66,0.66 0 0 0 0.59,-0.58 v 0 a 0.68,0.68 0 0 0 0.59,-0.58 v 0 a 0.71,0.71 0 0 0 0.63,-0.57 h -0.05 a 0.71,0.71 0 0 0 0.66,-0.55 l -0.05,0.05 a 1.24,1.24 0 0 0 1,-0.73 v 0 a 0.61,0.61 0 0 0 0.63,-0.48 v 0 a 1.24,1.24 0 0 0 1,-0.65 h 0.07 a 0.6,0.6 0 0 0 0.65,-0.44 v 0 a 1.25,1.25 0 0 0 1.12,-0.62 v 0 a 1.18,1.18 0 0 0 1.13,-0.57 v 0 a 1.22,1.22 0 0 0 1.16,-0.52 2,2 0 0 0 1.59,-0.64 v 0 a 1.42,1.42 0 0 0 1.31,-0.48 0.23,0.23 0 0 0 0.36,-0.09 2.09,2.09 0 0 0 1.72,-0.52 h 0.27 l 0.25,-0.13 a 2.12,2.12 0 0 0 1.76,-0.46 0.41,0.41 0 0 0 0.5,-0.07 3.66,3.66 0 0 0 2.44,-0.46 2.45,2.45 0 0 0 1.49,-0.13 13.27,13.27 0 0 0 4.44,-0.25 z m 9.46,42 A 22.76,22.76 0 0 1 371,91 c -3.23,0.5 -6.46,0.91 -9.73,1.1 a 15.54,15.54 0 0 0 -9.1,3.15 c -2.8,2.22 -3.42,5.25 -2.93,8.56 A 6,6 0 0 0 354,109 c 6.46,1.61 12.35,0.45 16.9,-4.58 3.78,-4.12 5.16,-9.37 5.83,-15.22 z"
         id="path12" />
      <path
         class="cls-2"
         d="m 392.91,158.16 -0.17,-0.1 -0.17,0.07 a 3.87,3.87 0 0 0 -2.44,-0.53 v 0 a 2.06,2.06 0 0 0 -1.69,-0.55 v 0 a 1.44,1.44 0 0 0 -1.05,-0.61 1.74,1.74 0 0 1 0.06,-0.45 0.46,0.46 0 0 0 0.45,-0.14 1.25,1.25 0 0 0 1.2,-0.42 0.43,0.43 0 0 0 0.47,-0.1 1.24,1.24 0 0 0 1.22,-0.46 0.42,0.42 0 0 0 0.47,-0.12 1.1,1.1 0 0 0 1.11,-0.47 v 0 a 1.32,1.32 0 0 0 1.24,-0.52 0.43,0.43 0 0 0 0.45,-0.15 0.73,0.73 0 0 0 0.74,-0.4 0.31,0.31 0 0 0 0.38,-0.14 0.76,0.76 0 0 0 0.76,-0.42 0.28,0.28 0 0 0 0.36,-0.14 0.71,0.71 0 0 0 0.72,-0.43 0.35,0.35 0 0 0 0.4,-0.16 0.52,0.52 0 0 0 0.61,-0.42 v 0 a 1.21,1.21 0 0 0 1.09,-0.62 v 0 a 0.89,0.89 0 0 0 0.8,-0.49 0.25,0.25 0 0 0 0.33,-0.17 0.53,0.53 0 0 0 0.59,-0.44 v 0 a 1.15,1.15 0 0 0 1,-0.63 h 0.08 a 0.6,0.6 0 0 0 0.61,-0.47 v 0 a 0.91,0.91 0 0 0 0.76,-0.54 0.32,0.32 0 0 0 0.37,-0.2 0.49,0.49 0 0 0 0.52,-0.43 v 0 A 0.64,0.64 0 0 0 404.8,147 v 0 a 0.72,0.72 0 0 0 0.66,-0.55 l -0.06,0.06 a 1.21,1.21 0 0 0 1,-0.72 h 0.05 a 0.59,0.59 0 0 0 0.58,-0.49 v 0 a 0.69,0.69 0 0 0 0.62,-0.54 v 0 a 0.71,0.71 0 0 0 0.64,-0.57 l -0.05,0.05 a 0.72,0.72 0 0 0 0.64,-0.58 v 0.06 a 1.13,1.13 0 0 0 0.93,-0.74 l 0.09,-0.07 a 0.52,0.52 0 0 0 0.5,-0.47 l 0.06,-0.06 a 0.58,0.58 0 0 0 0.53,-0.5 v 0 a 0.6,0.6 0 0 0 0.56,-0.53 v 0 a 0.63,0.63 0 0 0 0.55,-0.55 v 0 a 0.69,0.69 0 0 0 0.57,-0.54 v 0 a 0.67,0.67 0 0 0 0.58,-0.56 v 0 a 0.69,0.69 0 0 0 0.57,-0.57 v 0 a 0.65,0.65 0 0 0 0.55,-0.58 v 0 a 0.68,0.68 0 0 0 0.53,-0.57 v 0 a 0.6,0.6 0 0 0 0.54,-0.55 v 0 a 0.56,0.56 0 0 0 0.52,-0.55 v 0 a 0.56,0.56 0 0 0 0.5,-0.53 l 0.06,-0.06 a 0.52,0.52 0 0 0 0.47,-0.5 l 0.07,-0.08 a 1.16,1.16 0 0 0 0.76,-0.93 l -0.07,0.05 a 0.73,0.73 0 0 0 0.59,-0.64 l -0.05,0.05 a 0.71,0.71 0 0 0 0.58,-0.63 h -0.05 a 0.69,0.69 0 0 0 0.57,-0.62 v 0 a 0.68,0.68 0 0 0 0.54,-0.61 v 0 a 0.6,0.6 0 0 0 0.5,-0.57 v 0 a 0.56,0.56 0 0 0 0.48,-0.55 l 0.08,-0.1 a 1.12,1.12 0 0 0 0.69,-0.92 v 0 a 0.7,0.7 0 0 0 0.56,-0.64 v 0 a 0.68,0.68 0 0 0 0.52,-0.61 v 0 a 0.57,0.57 0 0 0 0.47,-0.57 l 0.05,-0.07 a 1.22,1.22 0 0 0 0.71,-1 h -0.06 a 0.69,0.69 0 0 0 0.55,-0.64 v 0 a 0.65,0.65 0 0 0 0.49,-0.61 v 0 a 1.19,1.19 0 0 0 0.71,-1 v 0 a 0.68,0.68 0 0 0 0.52,-0.63 v 0 a 0.63,0.63 0 0 0 0.49,-0.61 v 0 a 1.27,1.27 0 0 0 0.7,-1 h -0.06 a 0.67,0.67 0 0 0 0.52,-0.65 v 0 a 0.59,0.59 0 0 0 0.47,-0.61 v -0.07 a 1.17,1.17 0 0 0 0.67,-1 v 0 a 0.65,0.65 0 0 0 0.5,-0.64 v 0 a 1.2,1.2 0 0 0 0.67,-1 v 0 a 0.66,0.66 0 0 0 0.5,-0.66 v 0 a 1.26,1.26 0 0 0 0.68,-1.07 l -0.06,0.06 a 0.68,0.68 0 0 0 0.51,-0.66 v 0 a 1.26,1.26 0 0 0 0.68,-1.07 l -0.06,0.06 a 0.68,0.68 0 0 0 0.5,-0.68 v 0 a 1.3,1.3 0 0 0 0.67,-1.09 l -0.06,0.06 a 0.65,0.65 0 0 0 0.49,-0.67 v 0 a 1.27,1.27 0 0 0 0.66,-1.07 h -0.05 a 0.65,0.65 0 0 0 0.48,-0.66 v 0 a 1.26,1.26 0 0 0 0.63,-1.06 v 0 A 0.56,0.56 0 0 0 436,110 a 0.24,0.24 0 0 0 0.16,-0.33 0.91,0.91 0 0 0 0.51,-0.8 v 0 a 1.28,1.28 0 0 0 0.64,-1.1 v 0.05 a 0.62,0.62 0 0 0 0.46,-0.66 v 0 a 1.17,1.17 0 0 0 0.61,-1 1.27,1.27 0 0 0 0.64,-1.1 h -0.05 a 0.62,0.62 0 0 0 0.46,-0.66 v 0 a 1.19,1.19 0 0 0 0.6,-1 v 0 a 1.25,1.25 0 0 0 0.63,-1.1 v 0 a 1.31,1.31 0 0 0 0.65,-1.14 l -0.06,0.07 a 0.65,0.65 0 0 0 0.46,-0.69 v 0 a 1.24,1.24 0 0 0 0.6,-1.07 v 0 a 1.26,1.26 0 0 0 0.62,-1.12 v 0 a 1.26,1.26 0 0 0 0.63,-1.14 l -0.05,0.06 a 0.59,0.59 0 0 0 0.43,-0.65 0.23,0.23 0 0 0 0.14,-0.32 0.88,0.88 0 0 0 0.47,-0.81 v 0 a 1.23,1.23 0 0 0 0.58,-1.09 v 0 a 1.22,1.22 0 0 0 0.59,-1.11 v 0 a 1.25,1.25 0 0 0 0.6,-1.14 v 0 A 1.3,1.3 0 0 0 446.93,91 v 0 a 1.27,1.27 0 0 0 0.61,-1.15 l -0.05,0.06 a 0.58,0.58 0 0 0 0.42,-0.65 0.3,0.3 0 0 0 0.15,-0.38 1.58,1.58 0 0 0 0.63,-1.26 l -0.06,0.07 A 0.6,0.6 0 0 0 449,87 a 0.23,0.23 0 0 0 0.13,-0.33 0.81,0.81 0 0 0 0.44,-0.79 0.23,0.23 0 0 0 0.12,-0.33 0.82,0.82 0 0 0 0.44,-0.79 0.23,0.23 0 0 0 0.12,-0.33 0.82,0.82 0 0 0 0.44,-0.79 0.24,0.24 0 0 0 0.13,-0.33 0.84,0.84 0 0 0 0.43,-0.79 0.25,0.25 0 0 0 0.13,-0.34 0.82,0.82 0 0 0 0.43,-0.79 0.24,0.24 0 0 0 0.13,-0.33 0.81,0.81 0 0 0 0.43,-0.79 0.24,0.24 0 0 0 0.13,-0.34 0.83,0.83 0 0 0 0.41,-0.78 0.28,0.28 0 0 0 0.14,-0.38 0.72,0.72 0 0 0 0.41,-0.74 0.36,0.36 0 0 0 0.15,-0.42 1.43,1.43 0 0 0 0.59,-1.25 v 0 a 1.27,1.27 0 0 0 0.57,-1.18 v 0 a 1.26,1.26 0 0 0 0.56,-1.17 v 0 a 1.22,1.22 0 0 0 0.55,-1.15 v 0 a 1.22,1.22 0 0 0 0.53,-1.13 v 0 a 1.19,1.19 0 0 0 0.51,-1.09 0.25,0.25 0 0 0 0.13,-0.35 1.56,1.56 0 0 0 0.58,-1.31 v 0 a 1.23,1.23 0 0 0 0.55,-1.17 v 0 a 1.18,1.18 0 0 0 0.55,-1.16 v 0 a 1.16,1.16 0 0 0 0.51,-1.13 0.24,0.24 0 0 0 0.12,-0.35 0.79,0.79 0 0 0 0.41,-0.78 l 0.17,-0.52 v 0 a 1.24,1.24 0 0 0 0.54,-1.19 v 0 a 1.21,1.21 0 0 0 0.51,-1.17 v 0 a 2.09,2.09 0 0 0 0.67,-1.63 v 0.05 A 1.21,1.21 0 0 0 462,58.9 v 0 a 1.23,1.23 0 0 0 0.51,-1.16 0.2,0.2 0 0 0 0.1,-0.31 1.58,1.58 0 0 0 0.56,-1.36 v 0 a 1.21,1.21 0 0 0 0.52,-1.19 v 0 a 1.2,1.2 0 0 0 0.49,-1.11 0.34,0.34 0 0 0 0.12,-0.42 1.41,1.41 0 0 0 0.53,-1.27 v 0 a 1.17,1.17 0 0 0 0.49,-1.13 0.32,0.32 0 0 0 0.12,-0.4 1.41,1.41 0 0 0 0.52,-1.29 v 0 a 1.19,1.19 0 0 0 0.48,-1.13 0.36,0.36 0 0 0 0.13,-0.42 1.38,1.38 0 0 0 0.5,-1.27 v 0 a 2.11,2.11 0 0 0 0.63,-1.66 v 0 a 1.17,1.17 0 0 0 0.48,-1.17 0.28,0.28 0 0 0 0.11,-0.38 1.43,1.43 0 0 0 0.5,-1.31 v 0 a 2.07,2.07 0 0 0 0.61,-1.67 v 0 c 0.33,-0.22 0.47,-0.41 -0.06,-0.53 h -0.06 c -0.58,-0.7 -1.38,-0.59 -2.16,-0.6 l -0.15,-0.12 -0.18,0.06 a 2.37,2.37 0 0 0 -1.91,-0.5 l -0.15,-0.12 -0.19,0.06 a 2.35,2.35 0 0 0 -1.91,-0.48 0.25,0.25 0 0 0 -0.37,-0.08 2.23,2.23 0 0 0 -1.87,-0.48 0.42,0.42 0 0 0 -0.51,-0.1 v 0 c -0.46,-0.57 -1.11,-0.51 -1.74,-0.5 a 0.44,0.44 0 0 0 -0.45,-0.18 l 0.07,0.06 a 0.44,0.44 0 0 0 -0.09,-0.41 v 0 a 7.85,7.85 0 0 0 1.79,-2.22 l -0.07,0.06 a 0.73,0.73 0 0 0 0.62,-0.62 h -0.06 a 0.74,0.74 0 0 0 0.6,-0.64 v 0.05 a 0.7,0.7 0 0 0 0.57,-0.57 h -0.05 a 0.7,0.7 0 0 0 0.6,-0.62 h -0.05 a 0.74,0.74 0 0 0 0.6,-0.63 h -0.05 a 0.7,0.7 0 0 0 0.6,-0.61 v 0.05 a 0.72,0.72 0 0 0 0.58,-0.62 v 0 a 0.63,0.63 0 0 0 0.57,-0.58 v 0 a 0.68,0.68 0 0 0 0.57,-0.59 v 0 a 0.64,0.64 0 0 0 0.56,-0.58 v 0 a 0.68,0.68 0 0 0 0.56,-0.58 v 0 a 0.66,0.66 0 0 0 0.54,-0.58 v 0 a 0.65,0.65 0 0 0 0.54,-0.56 v 0 a 0.57,0.57 0 0 0 0.53,-0.55 v 0 a 0.58,0.58 0 0 0 0.5,-0.53 l 0.05,-0.06 a 0.54,0.54 0 0 0 0.51,-0.51 l 0.05,-0.05 a 7.51,7.51 0 0 0 2.41,-2.6 v 0 a 0.71,0.71 0 0 0 0.61,-0.62 L 471,22 a 0.74,0.74 0 0 0 0.59,-0.65 l -0.06,0.06 a 0.72,0.72 0 0 0 0.62,-0.62 v 0.05 a 0.68,0.68 0 0 0 0.55,-0.6 v 0 a 0.73,0.73 0 0 0 0.6,-0.62 v 0.05 a 0.72,0.72 0 0 0 0.6,-0.61 h -0.05 a 0.7,0.7 0 0 0 0.58,-0.62 v 0 a 0.7,0.7 0 0 0 0.59,-0.6 v 0 a 0.69,0.69 0 0 0 0.58,-0.6 v 0 a 0.73,0.73 0 0 0 0.56,-0.59 v 0 a 0.69,0.69 0 0 0 0.57,-0.58 v 0 a 0.66,0.66 0 0 0 0.54,-0.58 v 0 a 0.62,0.62 0 0 0 0.54,-0.55 v 0 a 0.61,0.61 0 0 0 0.54,-0.56 v 0 a 0.58,0.58 0 0 0 0.5,-0.53 v 0 a 0.56,0.56 0 0 0 0.52,-0.53 v -0.05 a 11.68,11.68 0 0 0 2.93,-3.1 v 0 a 0.73,0.73 0 0 0 0.59,-0.64 v 0.05 a 0.68,0.68 0 0 0 0.57,-0.57 v 0 a 0.73,0.73 0 0 0 0.59,-0.64 v 0 a 0.69,0.69 0 0 0 0.57,-0.58 v 0 a 0.7,0.7 0 0 0 0.6,-0.61 v 0 a 0.62,0.62 0 0 0 0.56,-0.58 v 0 a 0.7,0.7 0 0 0 0.59,-0.59 v 0 a 0.71,0.71 0 0 0 0.57,-0.6 v 0 a 0.72,0.72 0 0 0 0.57,-0.59 v 0 a 0.64,0.64 0 0 0 0.55,-0.57 v 0 a 0.68,0.68 0 0 0 0.54,-0.57 v 0 a 0.59,0.59 0 0 0 0.54,-0.55 v 0 a 0.56,0.56 0 0 0 0.52,-0.54 v 0 a 0.58,0.58 0 0 0 0.5,-0.53 h 0.05 a 0.53,0.53 0 0 0 0.5,-0.51 l 0.06,-0.07 a 0.53,0.53 0 0 0 0.47,-0.5 l 0.09,-0.09 a 0.5,0.5 0 0 0 0.46,-0.47 l 0.09,-0.09 c 0.6,-0.5 1.19,-0.69 1.7,0.13 v 0 a 2.23,2.23 0 0 0 0.53,1.82 0.34,0.34 0 0 0 0.1,0.43 2,2 0 0 0 0.5,1.69 v 0 a 2.23,2.23 0 0 0 0.53,1.8 0.37,0.37 0 0 0 0.1,0.45 1.42,1.42 0 0 0 0.43,1.35 0.2,0.2 0 0 0 0.08,0.32 2.19,2.19 0 0 0 0.52,1.8 0.39,0.39 0 0 0 0.1,0.46 1.41,1.41 0 0 0 0.43,1.33 0.22,0.22 0 0 0 0.08,0.34 2.1,2.1 0 0 0 0.52,1.76 0.46,0.46 0 0 0 0.1,0.5 1.34,1.34 0 0 0 0.43,1.3 0.26,0.26 0 0 0 0.08,0.37 2,2 0 0 0 0.52,1.72 v 0 a 2.28,2.28 0 0 0 0.54,1.84 0.29,0.29 0 0 0 0.09,0.4 2,2 0 0 0 0.51,1.71 v 0 a 2.28,2.28 0 0 0 0.53,1.82 0.32,0.32 0 0 0 0.09,0.41 2,2 0 0 0 0.52,1.7 v 0 a 2.21,2.21 0 0 0 0.53,1.81 0.35,0.35 0 0 0 0.1,0.44 1.47,1.47 0 0 0 0.44,1.36 0.19,0.19 0 0 0 0.06,0.31 2.23,2.23 0 0 0 0.53,1.8 0.39,0.39 0 0 0 0.1,0.46 1.43,1.43 0 0 0 0.43,1.35 0.2,0.2 0 0 0 0.08,0.32 2.15,2.15 0 0 0 0.52,1.78 0.43,0.43 0 0 0 0.1,0.48 1.35,1.35 0 0 0 0.43,1.3 0.26,0.26 0 0 0 0.08,0.37 2,2 0 0 0 0.51,1.72 2.25,2.25 0 0 0 0.54,1.82 0.29,0.29 0 0 0 0.08,0.39 2,2 0 0 0 0.52,1.71 v 0 a 2.27,2.27 0 0 0 0.52,1.82 0.33,0.33 0 0 0 0.1,0.41 2,2 0 0 0 0.52,1.71 v 0 c -0.06,0.75 0.41,1.84 -1.08,1.66 v 0 a 3,3 0 0 0 -2.24,-0.56 v 0 a 3,3 0 0 0 -2.25,-0.55 0.4,0.4 0 0 0 -0.49,-0.11 v 0 c -0.47,-0.58 -1.12,-0.51 -1.76,-0.49 l -0.15,-0.12 -0.18,0.05 a 2.35,2.35 0 0 0 -1.91,-0.48 l -0.17,-0.12 h -0.2 c -0.91,-0.63 -1.66,-0.78 -1.88,0.63 v 0 a 1.2,1.2 0 0 0 -0.53,1.14 v 0 a 2,2 0 0 0 -0.7,1.56 v 0 a 1.26,1.26 0 0 0 -0.58,1.19 v 0 a 1.28,1.28 0 0 0 -0.57,1.18 v 0 a 1.25,1.25 0 0 0 -0.56,1.17 v 0 a 1.23,1.23 0 0 0 -0.56,1.16 v 0 a 1.25,1.25 0 0 0 -0.55,1.14 v 0 a 1.24,1.24 0 0 0 -0.55,1.13 v 0 a 1.23,1.23 0 0 0 -0.54,1.12 v 0 a 1.17,1.17 0 0 0 -0.54,1.07 0.22,0.22 0 0 0 -0.12,0.32 0.84,0.84 0 0 0 -0.42,0.81 0.46,0.46 0 0 0 -0.2,0.48 h 0.05 a 0.58,0.58 0 0 0 -0.41,0.66 0.44,0.44 0 0 0 -0.2,0.48 v 0 a 0.58,0.58 0 0 0 -0.4,0.66 0.46,0.46 0 0 0 -0.2,0.49 v 0 a 1.29,1.29 0 0 0 -0.58,1.18 v 0 A 1.3,1.3 0 0 0 486,65 v 0 a 1.25,1.25 0 0 0 -0.6,1.17 v 0 a 1.13,1.13 0 0 0 -0.6,1.06 v 0 a 0.57,0.57 0 0 0 -0.41,0.66 0.46,0.46 0 0 0 -0.2,0.48 h 0.05 a 0.57,0.57 0 0 0 -0.41,0.66 0.46,0.46 0 0 0 -0.2,0.48 h 0.05 a 0.58,0.58 0 0 0 -0.42,0.66 0.43,0.43 0 0 0 -0.21,0.46 h 0.06 a 0.64,0.64 0 0 0 -0.43,0.71 v 0 a 1.23,1.23 0 0 0 -0.56,1.08 v 0 a 1.22,1.22 0 0 0 -0.56,1.1 v 0 a 1.23,1.23 0 0 0 -0.58,1.11 v 0 a 1.25,1.25 0 0 0 -0.59,1.12 v 0 a 1.31,1.31 0 0 0 -0.6,1.14 v 0 a 1.29,1.29 0 0 0 -0.62,1.15 v -0.05 a 1.28,1.28 0 0 0 -0.63,1.15 v 0 a 0.59,0.59 0 0 0 -0.44,0.66 v 0 a 1.15,1.15 0 0 0 -0.57,1.06 v 0 a 1.23,1.23 0 0 0 -0.59,1.09 v 0 a 1.26,1.26 0 0 0 -0.61,1.12 v 0 a 1.14,1.14 0 0 0 -0.61,1.11 v 0 a 0.64,0.64 0 0 0 -0.45,0.68 v 0.05 a 1.18,1.18 0 0 0 -0.58,1.06 v 0 a 1.27,1.27 0 0 0 -0.61,1.09 v 0 a 1.27,1.27 0 0 0 -0.64,1.13 h 0.05 a 0.58,0.58 0 0 0 -0.45,0.64 0.43,0.43 0 0 0 -0.22,0.45 h 0.07 a 0.65,0.65 0 0 0 -0.47,0.69 v 0 a 1.23,1.23 0 0 0 -0.62,1.09 v 0 a 1.25,1.25 0 0 0 -0.65,1.13 l 0.06,-0.07 a 0.66,0.66 0 0 0 -0.47,0.68 v 0 a 1.22,1.22 0 0 0 -0.63,1.07 v 0 a 1.27,1.27 0 0 0 -0.65,1.11 l 0.06,-0.06 a 0.67,0.67 0 0 0 -0.48,0.68 v 0 a 1.26,1.26 0 0 0 -0.63,1.08 v 0 a 1.31,1.31 0 0 0 -0.67,1.11 l 0.07,-0.06 a 0.67,0.67 0 0 0 -0.49,0.68 v 0 a 1.19,1.19 0 0 0 -0.63,1.07 v 0 a 0.64,0.64 0 0 0 -0.47,0.66 v 0 a 1.22,1.22 0 0 0 -0.64,1 v 0 a 1.25,1.25 0 0 0 -0.68,1.09 l 0.06,-0.06 a 0.69,0.69 0 0 0 -0.5,0.68 v 0 a 1.27,1.27 0 0 0 -0.67,1.07 h 0.06 a 0.68,0.68 0 0 0 -0.5,0.67 v 0 a 1.3,1.3 0 0 0 -0.68,1.06 h 0.06 a 0.66,0.66 0 0 0 -0.49,0.67 v 0 a 1.31,1.31 0 0 0 -0.68,1.07 h 0.06 a 0.66,0.66 0 0 0 -0.5,0.66 v 0 a 1.24,1.24 0 0 0 -0.68,1.08 l 0.06,-0.06 a 0.68,0.68 0 0 0 -0.52,0.66 v 0 a 1.3,1.3 0 0 0 -0.7,1.07 l 0.07,-0.06 a 0.72,0.72 0 0 0 -0.52,0.68 v 0 a 2.63,2.63 0 0 0 -1.17,1.68 v 0 a 0.64,0.64 0 0 0 -0.5,0.64 v 0 a 1.25,1.25 0 0 0 -0.69,1 l 0.06,-0.06 a 0.7,0.7 0 0 0 -0.53,0.66 v 0 a 2.58,2.58 0 0 0 -1.18,1.61 v 0 a 0.69,0.69 0 0 0 -0.53,0.65 v 0 a 2.65,2.65 0 0 0 -1.2,1.6 v 0 a 0.64,0.64 0 0 0 -0.53,0.61 v 0 a 0.6,0.6 0 0 0 -0.49,0.6 v 0 a 1.2,1.2 0 0 0 -0.71,1 h 0.06 a 0.72,0.72 0 0 0 -0.55,0.66 v 0 a 0.66,0.66 0 0 0 -0.52,0.61 v 0 a 2.68,2.68 0 0 0 -1.24,1.61 v 0 a 0.64,0.64 0 0 0 -0.53,0.61 v 0 a 0.68,0.68 0 0 0 -0.54,0.61 v 0 a 0.62,0.62 0 0 0 -0.5,0.58 v 0 a 1.2,1.2 0 0 0 -0.73,1 h 0.06 a 0.72,0.72 0 0 0 -0.58,0.65 h 0.05 a 0.7,0.7 0 0 0 -0.56,0.63 v 0 a 0.6,0.6 0 0 0 -0.55,0.58 v 0 a 0.67,0.67 0 0 0 -0.53,0.59 v 0 a 4.73,4.73 0 0 0 -1.84,2.14 h 0.06 a 0.74,0.74 0 0 0 -0.59,0.64 h 0.06 a 0.69,0.69 0 0 0 -0.59,0.62 v 0 a 0.72,0.72 0 0 0 -0.59,0.62 v 0 a 0.68,0.68 0 0 0 -0.58,0.61 v 0 a 0.71,0.71 0 0 0 -0.58,0.59 v 0 a 0.7,0.7 0 0 0 -0.58,0.59 v 0 a 0.68,0.68 0 0 0 -0.56,0.59 v 0 a 0.68,0.68 0 0 0 -0.56,0.57 v 0 a 0.64,0.64 0 0 0 -0.56,0.55 v 0 a 0.62,0.62 0 0 0 -0.56,0.56 v 0 a 0.65,0.65 0 0 0 -0.56,0.56 v 0 a 0.7,0.7 0 0 0 -0.59,0.56 v 0 a 0.67,0.67 0 0 0 -0.59,0.57 v 0 a 0.7,0.7 0 0 0 -0.59,0.58 v 0 a 0.69,0.69 0 0 0 -0.61,0.58 v 0 a 0.7,0.7 0 0 0 -0.62,0.59 v -0.05 a 0.72,0.72 0 0 0 -0.63,0.59 h 0.05 a 0.71,0.71 0 0 0 -0.63,0.58 v 0 a 2.55,2.55 0 0 0 -1.54,1.28 v 0 a 0.6,0.6 0 0 0 -0.58,0.51 v 0 a 0.66,0.66 0 0 0 -0.6,0.54 v 0 a 0.7,0.7 0 0 0 -0.63,0.57 v -0.06 a 2.71,2.71 0 0 0 -1.61,1.24 0.62,0.62 0 0 0 -0.61,0.53 v 0 a 0.69,0.69 0 0 0 -0.65,0.54 v -0.05 a 1.27,1.27 0 0 0 -1,0.71 0.61,0.61 0 0 0 -0.62,0.51 v 0 a 2.64,2.64 0 0 0 -1.68,1.16 v 0 a 0.65,0.65 0 0 0 -0.65,0.51 h 0.05 a 1.23,1.23 0 0 0 -1.08,0.67 v 0 a 0.64,0.64 0 0 0 -0.67,0.48 v -0.05 a 1.2,1.2 0 0 0 -1.09,0.67 v 0 a 1.24,1.24 0 0 0 -1.08,0.62 v 0 a 0.62,0.62 0 0 0 -0.67,0.43 v 0 a 0.44,0.44 0 0 0 -0.46,0.21 0.56,0.56 0 0 0 -0.64,0.42 v 0 a 1.14,1.14 0 0 0 -1.11,0.6 v 0 a 1.22,1.22 0 0 0 -1.14,0.58 v 0 a 1.21,1.21 0 0 0 -1.15,0.56 v 0 a 1.21,1.21 0 0 0 -1.17,0.55 v 0 a 2.09,2.09 0 0 0 -1.63,0.67 v 0 a 1.17,1.17 0 0 0 -1.19,0.48 v 0 a 0.44,0.44 0 0 0 -0.49,0.14 1.12,1.12 0 0 0 -1.18,0.47 v 0 c -0.62,0 -1.27,0 -1.72,0.56 v 0 a 0.4,0.4 0 0 0 -0.48,0.12 2.37,2.37 0 0 0 -1.86,0.46 0.28,0.28 0 0 0 -0.39,0.09 5.35,5.35 0 0 0 -2.95,0.52 l -0.22,-0.06 -0.19,0.1 z"
         id="path14" />
      <path
         class="cls-1"
         d="m 104.44,106 0.13,-0.15 -0.07,-0.18 a 3.72,3.72 0 0 0 0.51,-2.48 l 0.13,-0.13 -0.08,-0.16 a 2.37,2.37 0 0 0 0.45,-1.94 0.37,0.37 0 0 0 0.07,-0.48 3.26,3.26 0 0 0 0.5,-2.33 0.34,0.34 0 0 0 0.08,-0.45 3.27,3.27 0 0 0 0.5,-2.36 0.26,0.26 0 0 0 0.07,-0.4 3.46,3.46 0 0 0 0.51,-2.41 0.2,0.2 0 0 0 0.06,-0.34 2.33,2.33 0 0 0 0.44,-1.89 c 0,-0.29 0.08,-0.58 0.13,-0.87 a 2.37,2.37 0 0 0 0.44,-1.94 0.37,0.37 0 0 0 0.08,-0.48 3.35,3.35 0 0 0 0.5,-2.33 0.33,0.33 0 0 0 0.07,-0.45 3.32,3.32 0 0 0 0.5,-2.36 0.26,0.26 0 0 0 0.07,-0.4 3.39,3.39 0 0 0 0.51,-2.4 0.22,0.22 0 0 0 0.07,-0.36 2.3,2.3 0 0 0 0.43,-1.88 c 0,-0.29 0.09,-0.58 0.13,-0.87 a 2.32,2.32 0 0 0 0.44,-1.93 0.42,0.42 0 0 0 0.08,-0.51 3.17,3.17 0 0 0 0.5,-2.3 0.34,0.34 0 0 0 0.07,-0.46 3.31,3.31 0 0 0 0.51,-2.35 0.28,0.28 0 0 0 0.07,-0.41 3.45,3.45 0 0 0 0.51,-2.4 0.22,0.22 0 0 0 0.06,-0.36 3.59,3.59 0 0 0 0.52,-2.45 l 0.12,-0.13 -0.07,-0.16 a 2.41,2.41 0 0 0 0.44,-1.94 0.42,0.42 0 0 0 0.07,-0.51 3.17,3.17 0 0 0 0.5,-2.3 0.32,0.32 0 0 0 0.08,-0.45 3.27,3.27 0 0 0 0.5,-2.36 0.29,0.29 0 0 0 0.07,-0.42 3.29,3.29 0 0 0 0.51,-2.38 0.24,0.24 0 0 0 0.07,-0.37 c 0.58,-0.69 0.43,-1.59 0.69,-2.38 h 23.79 c 0.05,0.36 0.09,0.72 0.14,1.07 l -0.13,0.15 0.07,0.17 a 2.36,2.36 0 0 0 -0.44,1.92 0.42,0.42 0 0 0 -0.07,0.51 3.21,3.21 0 0 0 -0.51,2.29 0.36,0.36 0 0 0 -0.07,0.47 3.28,3.28 0 0 0 -0.5,2.34 0.31,0.31 0 0 0 -0.07,0.43 3.34,3.34 0 0 0 -0.51,2.38 0.25,0.25 0 0 0 -0.07,0.39 3.49,3.49 0 0 0 -0.51,2.42 l -0.13,0.14 0.07,0.18 a 2.38,2.38 0 0 0 -0.43,1.91 0.44,0.44 0 0 0 -0.08,0.52 3.19,3.19 0 0 0 -0.5,2.29 0.38,0.38 0 0 0 -0.07,0.48 3.2,3.2 0 0 0 -0.5,2.33 0.3,0.3 0 0 0 -0.08,0.43 3.39,3.39 0 0 0 -0.5,2.38 0.24,0.24 0 0 0 -0.07,0.38 3.5,3.5 0 0 0 -0.51,2.42 0.21,0.21 0 0 0 -0.06,0.35 2.29,2.29 0 0 0 -0.44,1.89 0.44,0.44 0 0 0 -0.07,0.52 3.18,3.18 0 0 0 -0.5,2.28 0.41,0.41 0 0 0 -0.08,0.5 3.24,3.24 0 0 0 -0.5,2.31 0.31,0.31 0 0 0 -0.07,0.44 3.31,3.31 0 0 0 -0.5,2.37 0.26,0.26 0 0 0 -0.08,0.39 3.49,3.49 0 0 0 -0.5,2.42 0.22,0.22 0 0 0 -0.07,0.36 2.21,2.21 0 0 0 -0.43,1.87 l -0.08,0.53 a 3.23,3.23 0 0 0 -0.5,2.28 0.41,0.41 0 0 0 -0.07,0.5 3.15,3.15 0 0 0 -0.5,2.31 0.31,0.31 0 0 0 -0.08,0.44 3.4,3.4 0 0 0 -0.5,2.37 0.26,0.26 0 0 0 -0.07,0.4 3.46,3.46 0 0 0 -0.51,2.41 0.21,0.21 0 0 0 -0.06,0.35 2.26,2.26 0 0 0 -0.43,1.88 c 0,0.29 -0.09,0.58 -0.14,0.88 a 2.37,2.37 0 0 0 -0.44,1.93 0.4,0.4 0 0 0 -0.08,0.49 3.25,3.25 0 0 0 -0.5,2.31 0.34,0.34 0 0 0 -0.07,0.46 3.25,3.25 0 0 0 -0.5,2.35 0.28,0.28 0 0 0 -0.08,0.41 3.43,3.43 0 0 0 -0.5,2.4 0.22,0.22 0 0 0 -0.07,0.36 3.58,3.58 0 0 0 -0.51,2.45 l -0.13,0.14 0.08,0.17 c -0.42,0.83 -0.83,1.46 -2,1.45 -7.07,-0.07 -14.13,0 -21.2,-0.05 a 6.49,6.49 0 0 1 -1.35,-0.28 v -0.13 a 3.59,3.59 0 0 0 0.52,-2.43 l 0.12,-0.14 -0.07,-0.18 a 2.37,2.37 0 0 0 0.44,-1.91 l 0.13,-0.86 a 2.38,2.38 0 0 0 0.44,-2 0.37,0.37 0 0 0 0.08,-0.48 3.3,3.3 0 0 0 0.5,-2.33 0.31,0.31 0 0 0 0.07,-0.43 3.32,3.32 0 0 0 0.51,-2.37 0.28,0.28 0 0 0 0.06,-0.41 3.45,3.45 0 0 0 0.5,-2.36 z"
         id="path16" />
      <path
         class="cls-1"
         d="m 438.32,59.1 a 2.34,2.34 0 0 0 0.09,1.48 8.51,8.51 0 0 0 0.49,4 2.58,2.58 0 0 0 0.1,1.58 c 0,1.2 -0.19,2.42 0.45,3.53 a 2.55,2.55 0 0 0 0.09,1.52 6.88,6.88 0 0 0 0.46,3.59 3.89,3.89 0 0 0 0.13,2 6.56,6.56 0 0 0 0.45,3.47 2.56,2.56 0 0 0 0.1,1.57 c 0,1.2 -0.2,2.42 0.45,3.53 a 2.63,2.63 0 0 0 0.09,1.52 6.85,6.85 0 0 0 0.46,3.58 v 1.37 a 1.45,1.45 0 0 0 -0.61,1.15 v 0 a 0.62,0.62 0 0 0 -0.46,0.66 v 0 a 1.16,1.16 0 0 0 -0.63,1 v 0 a 1.25,1.25 0 0 0 -0.69,1.08 l 0.06,-0.06 a 0.66,0.66 0 0 0 -0.47,0.69 v 0 a 1.21,1.21 0 0 0 -0.66,1.07 v -0.05 a 0.62,0.62 0 0 0 -0.46,0.67 v 0 a 1.21,1.21 0 0 0 -0.64,1 v 0 a 1.25,1.25 0 0 0 -0.68,1.08 h 0.05 a 0.68,0.68 0 0 0 -0.46,0.7 v 0 a 1.24,1.24 0 0 0 -0.67,1.08 h 0.05 a 0.64,0.64 0 0 0 -0.47,0.67 v 0 a 1.19,1.19 0 0 0 -0.65,1.06 v 0 a 0.59,0.59 0 0 0 -0.45,0.65 v 0.06 a 1.18,1.18 0 0 0 -0.63,1 v 0 a 1.27,1.27 0 0 0 -0.68,1.09 l 0.05,-0.06 a 0.65,0.65 0 0 0 -0.46,0.69 v 0 a 1.21,1.21 0 0 0 -0.65,1.07 v 0 a 0.62,0.62 0 0 0 -0.46,0.67 v 0 a 1.19,1.19 0 0 0 -0.64,1 v 0 a 1.24,1.24 0 0 0 -0.69,1.08 l 0.06,-0.06 a 0.66,0.66 0 0 0 -0.47,0.69 v 0 a 1.22,1.22 0 0 0 -0.67,1.08 h 0.05 a 0.62,0.62 0 0 0 -0.46,0.67 v 0 a 1.2,1.2 0 0 0 -0.64,1.06 v 0 a 2.62,2.62 0 0 0 -1.1,1.72 v 0 a 1.33,1.33 0 0 0 -0.71,1 l 0.08,-0.11 -0.94,-1.17 -0.12,-0.86 a 3.18,3.18 0 0 0 -0.49,-2.34 0.35,0.35 0 0 0 -0.05,-0.46 3.37,3.37 0 0 0 -0.49,-2.4 0.28,0.28 0 0 0 -0.06,-0.41 l -0.06,-0.56 a 2.2,2.2 0 0 0 -0.43,-1.88 l -0.12,-0.93 a 3.14,3.14 0 0 0 -0.48,-2.31 0.38,0.38 0 0 0 -0.06,-0.49 3.27,3.27 0 0 0 -0.48,-2.36 0.35,0.35 0 0 0 -0.06,-0.45 A 3.45,3.45 0 0 0 421.6,98 l -0.12,-1 a 2.27,2.27 0 0 0 -0.43,-1.9 l -0.12,-0.9 a 3.25,3.25 0 0 0 -0.48,-2.33 0.35,0.35 0 0 0 -0.06,-0.47 3.26,3.26 0 0 0 -0.48,-2.36 0.32,0.32 0 0 0 -0.06,-0.44 3,3 0 0 0 -0.48,-2.33 v 0 c 0,-0.36 -0.11,-0.71 -0.16,-1.07 a 2.33,2.33 0 0 0 -0.43,-1.94 l -0.11,-0.87 a 3.22,3.22 0 0 0 -0.49,-2.34 0.38,0.38 0 0 0 -0.06,-0.47 3.31,3.31 0 0 0 -0.48,-2.39 0.28,0.28 0 0 0 -0.06,-0.41 3.45,3.45 0 0 0 -0.49,-2.45 l -0.12,-0.92 a 2.31,2.31 0 0 0 -0.44,-2 c 0,-0.28 -0.07,-0.57 -0.11,-0.86 a 3.22,3.22 0 0 0 -0.48,-2.34 0.34,0.34 0 0 0 -0.06,-0.46 3.41,3.41 0 0 0 -0.48,-2.41 c 0,-0.32 -0.08,-0.64 -0.13,-1 a 2.24,2.24 0 0 0 -0.42,-1.9 l -0.12,-0.91 a 3.15,3.15 0 0 0 -0.49,-2.31 0.39,0.39 0 0 0 0,-0.49 3.31,3.31 0 0 0 -0.49,-2.37 0.31,0.31 0 0 0 -0.06,-0.43 3.36,3.36 0 0 0 -0.49,-2.43 0.23,0.23 0 0 0 -0.05,-0.37 l -0.07,-0.57 a 2.26,2.26 0 0 0 -0.43,-1.93 l -0.08,-0.87 a 1,1 0 0 0 0.17,-0.5 0.34,0.34 0 0 0 0.41,-0.1 h 0.54 l 19.86,0.11 c 1.21,0 2.42,0.08 3.63,0.12 0,0.32 0.1,0.64 0.16,1 0,1.19 -0.2,2.41 0.45,3.51 a 2.61,2.61 0 0 0 0.09,1.54 6.82,6.82 0 0 0 0.44,3.66 z"
         id="path18" />
      <path
         class="cls-3"
         d="m 113,23 a 0.34,0.34 0 0 0 0.4,-0.19 0.52,0.52 0 0 0 0.56,-0.41 v 0 a 0.93,0.93 0 0 0 0.79,-0.51 0.25,0.25 0 0 0 0.33,-0.16 0.55,0.55 0 0 0 0.6,-0.44 v 0 a 1.21,1.21 0 0 0 1,-0.63 v 0 a 0.62,0.62 0 0 0 0.65,-0.47 v 0 a 1.2,1.2 0 0 0 1.06,-0.64 v 0 a 0.79,0.79 0 0 0 0.73,-0.48 0.37,0.37 0 0 0 0.41,-0.2 0.52,0.52 0 0 0 0.56,-0.41 v 0 A 0.89,0.89 0 0 0 121,18 a 0.24,0.24 0 0 0 0.33,-0.16 0.54,0.54 0 0 0 0.6,-0.44 v 0 a 1.19,1.19 0 0 0 1,-0.63 h 0.06 a 0.62,0.62 0 0 0 0.64,-0.46 v 0 a 1.61,1.61 0 0 1 1.64,0.49 v 0 a 1.23,1.23 0 0 0 0.57,1.13 v 0 a 1.27,1.27 0 0 0 0.57,1.14 v 0 a 1.26,1.26 0 0 0 0.57,1.14 v 0 a 1.25,1.25 0 0 0 0.57,1.14 v 0 a 1.22,1.22 0 0 0 0.56,1.13 v 0 a 1.24,1.24 0 0 0 0.56,1.14 v 0 a 1.22,1.22 0 0 0 0.57,1.14 v 0 a 1.22,1.22 0 0 0 0.57,1.14 v 0 a 1.24,1.24 0 0 0 0.57,1.13 v 0 c 0.14,0.7 0.25,1.45 1.16,0.57 v 0 A 0.7,0.7 0 0 0 132,27 v 0 a 0.7,0.7 0 0 0 0.64,-0.56 l -0.05,0.06 a 1.19,1.19 0 0 0 1,-0.72 l 0.06,-0.05 a 0.59,0.59 0 0 0 0.57,-0.48 v 0 a 0.65,0.65 0 0 0 0.6,-0.53 v 0 a 0.71,0.71 0 0 0 0.64,-0.55 v 0 a 1.19,1.19 0 0 0 1,-0.71 l 0.09,-0.06 A 0.55,0.55 0 0 0 137,23 v 0 a 0.67,0.67 0 0 0 0.61,-0.52 v 0 a 0.69,0.69 0 0 0 0.63,-0.55 v 0 a 1,1 0 0 0 0.77,-0.58 0.28,0.28 0 0 0 0.33,-0.22 0.45,0.45 0 0 0 0.48,-0.42 h 0.05 a 0.6,0.6 0 0 0 0.59,-0.5 v 0 a 0.67,0.67 0 0 0 0.62,-0.53 v 0 a 0.71,0.71 0 0 0 0.65,-0.56 v 0.06 a 1.18,1.18 0 0 0 1,-0.72 h 0.06 a 0.58,0.58 0 0 0 0.57,-0.48 v 0 a 0.67,0.67 0 0 0 0.61,-0.53 v 0 a 0.7,0.7 0 0 0 0.64,-0.55 v 0.05 a 1.21,1.21 0 0 0 1,-0.71 l 0.09,-0.07 a 0.54,0.54 0 0 0 0.54,-0.46 v 0 a 0.65,0.65 0 0 0 0.61,-0.51 v 0 a 0.69,0.69 0 0 0 0.63,-0.55 h -0.05 a 1,1 0 0 0 0.79,-0.58 0.27,0.27 0 0 0 0.31,-0.22 0.47,0.47 0 0 0 0.49,-0.42 h 0.05 a 0.64,0.64 0 0 0 0.59,-0.5 v 0 a 0.69,0.69 0 0 0 0.62,-0.55 v 0 a 0.7,0.7 0 0 0 0.65,-0.56 l -0.05,0.06 a 1.17,1.17 0 0 0 1,-0.72 h 0.06 a 0.59,0.59 0 0 0 0.58,-0.48 v 0 a 0.67,0.67 0 0 0 0.61,-0.53 v 0 a 0.7,0.7 0 0 0 0.64,-0.56 l -0.05,0.06 a 1.2,1.2 0 0 0 1,-0.72 l 0.08,-0.05 a 0.57,0.57 0 0 0 0.55,-0.47 v 0 a 0.65,0.65 0 0 0 0.6,-0.52 v 0 a 0.71,0.71 0 0 0 0.64,-0.55 h -0.06 a 1,1 0 0 0 0.79,-0.59 0.26,0.26 0 0 0 0.31,-0.21 0.47,0.47 0 0 0 0.49,-0.43 h 0.05 a 0.64,0.64 0 0 0 0.59,-0.5 v 0 a 0.68,0.68 0 0 0 0.62,-0.55 v 0 a 0.72,0.72 0 0 0 0.66,-0.56 l -0.06,0.06 a 1.2,1.2 0 0 0 1,-0.73 h 0.06 a 0.58,0.58 0 0 0 0.58,-0.48 v 0 a 0.66,0.66 0 0 0 0.61,-0.53 v 0 a 0.86,0.86 0 0 0 0.47,-0.11 l 0.61,0.59 a 1,1 0 0 0 -0.13,0.5 h 0.06 a 0.7,0.7 0 0 0 -0.55,0.64 v 0 a 0.67,0.67 0 0 0 -0.54,0.62 v 0 a 2.59,2.59 0 0 0 -1.25,1.61 h 0.06 a 0.72,0.72 0 0 0 -0.56,0.65 v 0 a 0.67,0.67 0 0 0 -0.54,0.62 v 0 a 0.6,0.6 0 0 0 -0.5,0.59 v 0 a 1.22,1.22 0 0 0 -0.74,1 l 0.06,-0.06 a 0.71,0.71 0 0 0 -0.56,0.65 v 0 a 0.7,0.7 0 0 0 -0.55,0.63 v 0 a 0.64,0.64 0 0 0 -0.51,0.6 v 0 a 2.59,2.59 0 0 0 -1.24,1.6 l 0.05,-0.05 a 0.68,0.68 0 0 0 -0.55,0.64 v 0 a 0.66,0.66 0 0 0 -0.52,0.61 v 0 a 0.56,0.56 0 0 0 -0.48,0.57 v 0.06 a 1.22,1.22 0 0 0 -0.73,1 h 0.06 a 0.71,0.71 0 0 0 -0.56,0.65 v 0 a 0.69,0.69 0 0 0 -0.54,0.62 v 0 a 2.61,2.61 0 0 0 -1.26,1.61 h 0.06 a 0.71,0.71 0 0 0 -0.56,0.65 v 0 a 0.68,0.68 0 0 0 -0.54,0.63 v 0 a 0.63,0.63 0 0 0 -0.51,0.6 v 0 a 2.54,2.54 0 0 0 -1.24,1.59 l 0.05,-0.05 a 0.71,0.71 0 0 0 -0.56,0.64 v 0 a 0.67,0.67 0 0 0 -0.53,0.6 v 0 a 0.56,0.56 0 0 0 -0.48,0.56 v 0.07 a 1.2,1.2 0 0 0 -0.72,1 l 0.06,-0.05 a 0.72,0.72 0 0 0 -0.56,0.65 v 0 a 0.68,0.68 0 0 0 -0.53,0.62 v 0 a 0.6,0.6 0 0 0 -0.49,0.58 v 0.06 a 1.19,1.19 0 0 0 -0.73,1 l 0.06,-0.06 a 0.7,0.7 0 0 0 -0.56,0.65 v 0 a 0.69,0.69 0 0 0 -0.55,0.63 v 0 a 0.67,0.67 0 0 0 -0.51,0.6 v 0 a 2.66,2.66 0 0 0 -1.24,1.6 v -0.05 a 0.7,0.7 0 0 0 -0.55,0.64 v 0 a 0.66,0.66 0 0 0 -0.52,0.6 v 0 a 3,3 0 0 0 -1.31,1.61 L 129.18,45.51 118.07,31.9 a 3,3 0 0 0 -1.28,-1.63 v 0 a 0.66,0.66 0 0 0 -0.53,-0.61 v 0 A 0.71,0.71 0 0 0 115.71,29 l 0.06,0.06 a 1.18,1.18 0 0 0 -0.72,-1 V 28 a 0.59,0.59 0 0 0 -0.49,-0.59 v 0 a 0.67,0.67 0 0 0 -0.54,-0.63 v 0 a 0.72,0.72 0 0 0 -0.56,-0.66 l 0.06,0.06 a 1.18,1.18 0 0 0 -0.72,-1 v -0.05 a 0.6,0.6 0 0 0 -0.5,-0.59 v 0 -1.1 0 A 0.86,0.86 0 0 0 113,23 Z"
         id="path20" />
      <path
         class="cls-4"
         d="m 231,137.51 h 2.33 a 0.83,0.83 0 0 0 0.77,0.4 0.29,0.29 0 0 0 0.35,0.15 l 0.73,0.75 a 0.25,0.25 0 0 0 0.19,0.31 c 0.14,0.44 0.28,0.26 0.41,0 v 0 a 0.66,0.66 0 0 0 0.59,-0.52 v 0 a 0.9,0.9 0 0 0 0.71,-0.54 0.39,0.39 0 0 0 0.42,-0.15 0.8,0.8 0 0 0 0.79,-0.39 h 2.39 a 1.85,1.85 0 0 0 1.26,0.59 v -0.05 a 0.77,0.77 0 0 0 0.61,0.59 v 0 a 1.68,1.68 0 0 0 0.63,1.08 v 0 c 0,1.68 0,3.36 0.05,5 0,0.33 -0.08,0.65 -0.11,1 a 4.72,4.72 0 0 0 -0.48,3 0.39,0.39 0 0 0 -0.06,0.48 l -0.6,1.75 v 0 c -1.94,0.36 -1.63,-1.05 -1.7,-2.16 a 0.44,0.44 0 0 0 0.06,-0.49 4.64,4.64 0 0 0 0.49,-2.88 c 0,-0.32 0.07,-0.64 0.1,-1 a 3.13,3.13 0 0 0 -0.07,-3.49 v 0 a 0.51,0.51 0 0 0 -0.52,-0.55 v 0 a 1.47,1.47 0 0 0 -2.25,0 v 0 a 1.26,1.26 0 0 0 -1.24,1.07 v 0 a 0.63,0.63 0 0 0 -0.45,0.7 v 0 a 1.68,1.68 0 0 0 -0.51,1.65 c 0,0.32 -0.08,0.64 -0.11,1 a 4.78,4.78 0 0 0 -0.49,3 0.35,0.35 0 0 0 -0.06,0.45 c -0.58,0.88 -0.44,1.92 -0.65,2.88 l 0.09,-0.09 c -1.22,0.2 -2,0 -1.74,-1.56 a 11.47,11.47 0 0 0 0.06,-1.66 c 0,-0.31 0.07,-0.61 0.1,-0.91 a 3.47,3.47 0 0 0 0.44,-2.46 c 0,-0.32 0.07,-0.65 0.11,-1 a 1.07,1.07 0 0 0 0,-1.46 0.25,0.25 0 0 0 -0.06,-0.37 1.06,1.06 0 0 0 -1.06,-1.23 v 0 a 1.15,1.15 0 0 0 -1.82,0 v 0 a 1,1 0 0 0 -1.07,0.65 v 0 a 0.49,0.49 0 0 0 -0.45,0.54 0.31,0.31 0 0 0 -0.17,0.38 1.33,1.33 0 0 0 -0.48,1.32 0.28,0.28 0 0 0 -0.07,0.39 3.32,3.32 0 0 0 -0.44,2.4 c 0,0.34 -0.07,0.67 -0.11,1 a 4.69,4.69 0 0 0 -0.47,2.92 0.48,0.48 0 0 0 -0.08,0.49 2.26,2.26 0 0 1 -2.17,0.51 l 0.08,0.06 a 0.69,0.69 0 0 0 -0.15,-0.48 c 0,-0.34 0.05,-0.68 0.07,-1 a 4.7,4.7 0 0 0 0.48,-2.9 c 0,-0.32 0.07,-0.63 0.1,-1 a 3.42,3.42 0 0 0 0.43,-2.42 l 0.12,-1 a 4.83,4.83 0 0 0 0.47,-2.92 c 0,-0.29 0.07,-0.59 0.1,-0.88 l 0.72,-0.75 h 0.77 c 0.52,0.06 0.44,1.33 1.32,0.65 l 0.52,-0.24 a 0.82,0.82 0 0 0 0.78,-0.61 z"
         id="path22" />
      <path
         class="cls-4"
         d="m 247.58,152 a 0.44,0.44 0 0 0 -0.06,0.49 6.05,6.05 0 0 0 -0.57,2.87 v 0 a 2.67,2.67 0 0 1 -2.19,-0.2 V 155 a 3.41,3.41 0 0 0 0.43,-2.4 c 0,-0.34 0.07,-0.69 0.11,-1 a 4.66,4.66 0 0 0 0.48,-2.89 c 0,-0.32 0.07,-0.63 0.11,-0.95 a 3.45,3.45 0 0 0 0.43,-2.41 c 0,-0.34 0.07,-0.68 0.11,-1 a 4.82,4.82 0 0 0 0.48,-2.91 c 0,-0.31 0.07,-0.62 0.1,-0.93 a 4,4 0 0 0 0.49,-2.45 v 0 l 0.72,-0.51 h 0.76 c 0.35,0.45 0.43,1.56 1.37,0.55 v 0 a 1.67,1.67 0 0 0 1.28,-0.54 H 254 a 0.84,0.84 0 0 0 0.8,0.41 0.31,0.31 0 0 0 0.37,0.15 1,1 0 0 0 0.73,0.58 l -0.05,-0.05 a 1,1 0 0 0 0.59,0.72 0.33,0.33 0 0 0 0.18,0.38 0.73,0.73 0 0 0 0.39,0.7 0.37,0.37 0 0 0 0.1,0.42 31.63,31.63 0 0 1 -0.07,5.59 v 0 a 1.27,1.27 0 0 0 -0.48,1.13 0.27,0.27 0 0 0 -0.13,0.35 0.92,0.92 0 0 0 -0.49,0.78 v 0 l -1.7,1.66 v 0 a 1.37,1.37 0 0 0 -1.13,0.55 v 0 l -3.32,-0.05 v 0 a 1.4,1.4 0 0 0 -1.11,-0.65 v 0 c -0.39,-0.7 -0.83,-1.05 -1.11,0 a 8.33,8.33 0 0 0 0.01,1.77 z m 7.8,-8.08 c 0.07,-2.38 -0.84,-3.86 -2.39,-4.17 -1.55,-0.31 -3.05,0.69 -3.89,2.49 a 7.25,7.25 0 0 0 -0.46,3.82 2.6,2.6 0 0 0 1.87,2.5 3.08,3.08 0 0 0 3.11,-0.66 5.86,5.86 0 0 0 1.76,-3.96 z"
         id="path24" />
      <path
         class="cls-5"
         d="m 293.52,144.18 c 0,-0.33 0.07,-0.65 0.11,-1 a 2.78,2.78 0 0 0 0.53,-1.83 v 0 a 1.39,1.39 0 0 0 0.57,-1.14 v 0 a 0.58,0.58 0 0 0 0.43,-0.57 0.24,0.24 0 0 0 0.18,-0.31 l 0.77,-0.76 a 0.26,0.26 0 0 0 0.31,-0.19 A 0.56,0.56 0 0 0 297,138 v 0 a 1.66,1.66 0 0 0 1.28,-0.53 h 2.4 a 0.8,0.8 0 0 0 0.77,0.38 0.41,0.41 0 0 0 0.42,0.16 0.92,0.92 0 0 0 0.7,0.58 v 0 c 0.07,0.21 0.12,0.48 0.42,0.38 0.08,0 0.09,-0.27 0.13,-0.42 a 0.44,0.44 0 0 0 0.09,-0.46 l 0.73,-0.61 h 0.8 l 0.67,0.52 v 1 a 4.74,4.74 0 0 0 -0.47,2.94 0.46,0.46 0 0 0 -0.06,0.5 4.58,4.58 0 0 0 -0.48,2.86 c 0,0.33 -0.07,0.67 -0.11,1 a 4.73,4.73 0 0 0 -0.48,2.93 0.48,0.48 0 0 0 -0.06,0.51 1.72,1.72 0 0 1 -2.18,1.07 h 0.07 c -0.66,-1.93 -1.21,0 -1.82,0.05 v 0 l -3.31,-0.07 v 0 a 4.16,4.16 0 0 0 -1.67,-1.2 l 0.07,0.07 a 1.41,1.41 0 0 0 -0.69,-1.08 v 0 a 2.64,2.64 0 0 0 -0.59,-1.72 0.52,0.52 0 0 0 -0.06,-0.51 c -0.04,-0.68 -0.04,-1.43 -0.05,-2.17 z m 2.17,0.56 c 0,2.43 0.68,3.6 2.18,3.92 1.5,0.32 3.14,-0.49 4,-2.32 a 6.26,6.26 0 0 0 0.54,-4.06 3,3 0 0 0 -2,-2.44 3.09,3.09 0 0 0 -3.26,1 5.39,5.39 0 0 0 -1.46,3.9 z"
         id="path26" />
      <path
         class="cls-5"
         d="m 337.35,141.34 a 0.21,0.21 0 0 0 0.31,0.1 0.92,0.92 0 0 0 0.82,0.46 v 0 a 1.46,1.46 0 0 0 1,0.71 l -0.07,-0.07 a 1.6,1.6 0 0 0 0.71,1 v 0 a 3.72,3.72 0 0 0 0.47,1.88 0.57,0.57 0 0 0 0,0.71 3.12,3.12 0 0 0 -0.51,1.9 v 0 a 1.48,1.48 0 0 0 -0.65,1.09 v 0 a 0.7,0.7 0 0 0 -0.56,0.58 v 0 a 0.72,0.72 0 0 0 -0.65,0.56 v -0.06 a 2.61,2.61 0 0 0 -1.57,0.7 v 0 h -3.91 l -0.17,-0.13 h -0.21 a 1.59,1.59 0 0 0 -1.29,-0.54 v 0 a 1.34,1.34 0 0 0 -1.08,-0.68 l 0.06,0.09 a 3.82,3.82 0 0 1 -0.14,-2.17 v 0 l 1.07,-0.44 -0.06,-0.08 a 0.71,0.71 0 0 0 0.65,0.56 v 0 a 0.5,0.5 0 0 0 0.59,0.42 0.42,0.42 0 0 0 0.45,0.16 1.17,1.17 0 0 0 1.24,0.43 h 1.14 l 1.14,-0.09 a 0.68,0.68 0 0 0 0.73,-0.38 0.31,0.31 0 0 0 0.37,-0.19 0.38,0.38 0 0 0 0.44,-0.44 0.27,0.27 0 0 0 0.19,-0.35 1.55,1.55 0 0 0 -0.08,-2.4 v 0 c 0,-0.34 -0.18,-0.51 -0.52,-0.49 a 0.45,0.45 0 0 0 -0.47,-0.23 v 0 c -0.26,-0.49 -0.72,-0.52 -1.19,-0.53 v 0 a 1.16,1.16 0 0 0 -1.17,-0.5 v 0 a 1.38,1.38 0 0 0 -1.1,-0.58 v 0 a 0.61,0.61 0 0 0 -0.59,-0.49 v 0 a 0.64,0.64 0 0 0 -0.52,-0.55 v 0 a 0.84,0.84 0 0 0 -0.48,-0.72 0.35,0.35 0 0 0 -0.11,-0.42 v -3.35 a 0.24,0.24 0 0 0 0.09,-0.34 0.85,0.85 0 0 0 0.42,-0.77 0.23,0.23 0 0 0 0.14,-0.32 1,1 0 0 0 0.61,-0.76 l -0.06,0.06 a 1,1 0 0 0 0.75,-0.61 0.22,0.22 0 0 0 0.42,-0.07 0.76,0.76 0 0 0 0.74,-0.42 h 0.21 l 0.18,-0.12 3.9,-0.07 0.89,0.18 a 0.85,0.85 0 0 0 0.81,0.42 0.21,0.21 0 0 0 0.3,0.12 c 0.51,0.68 0.27,1.43 0.22,2.17 v 0 l -1,0.42 0.05,0.09 a 0.64,0.64 0 0 0 -0.67,-0.48 v 0 a 1.61,1.61 0 0 0 -1.69,-0.54 2.48,2.48 0 0 0 -1.7,0 1,1 0 0 0 -1.19,0.47 v 0 a 0.66,0.66 0 0 0 -0.64,0.57 v -0.05 a 0.61,0.61 0 0 0 -0.46,0.69 v 0 a 1.1,1.1 0 0 0 0,1.72 v 0 a 1.2,1.2 0 0 0 1.13,1.2 v 0 a 0.51,0.51 0 0 0 0.63,0.4 0.48,0.48 0 0 0 0.49,0.14 1.28,1.28 0 0 0 1.15,0.43 z"
         id="path28" />
      <path
         class="cls-5"
         d="m 208.32,138.93 a 0.62,0.62 0 0 0 0,-0.73 3.23,3.23 0 0 0 0.49,-1.89 v 0 a 1.56,1.56 0 0 0 0.63,-1.09 v 0 a 0.74,0.74 0 0 0 0.56,-0.59 v 0 a 0.76,0.76 0 0 0 0.62,-0.55 h -0.05 a 1.61,1.61 0 0 0 1.19,-0.6 0.52,0.52 0 0 0 0.49,-0.11 h 3.89 a 0.56,0.56 0 0 0 0.51,0.1 1.5,1.5 0 0 0 1.18,0.56 v 0 l 0.59,0.54 v 0 1.1 0 a 1.74,1.74 0 0 0 -0.66,1.1 v -0.07 a 1,1 0 0 0 -0.43,0 v 0 a 0.57,0.57 0 0 0 -0.64,-0.42 0.28,0.28 0 0 0 -0.35,-0.16 1.28,1.28 0 0 0 -1.34,-0.45 2.58,2.58 0 0 0 -1.69,0 1.4,1.4 0 0 0 -1.6,0.58 h -0.07 c -0.31,0 -0.48,0.15 -0.48,0.47 a 0.26,0.26 0 0 0 -0.17,0.33 1.65,1.65 0 0 0 0.08,2.48 v 0 a 0.52,0.52 0 0 0 0.56,0.51 h 0.05 a 1,1 0 0 0 1.05,0.54 0.3,0.3 0 0 0 0.38,0.11 0.72,0.72 0 0 0 0.74,0.38 l 0.52,0.14 a 1.48,1.48 0 0 0 1.16,0.59 v 0 a 0.71,0.71 0 0 0 0.62,0.5 v 0 a 0.66,0.66 0 0 0 0.53,0.54 v 0 a 0.9,0.9 0 0 0 0.49,0.74 0.34,0.34 0 0 0 0.1,0.4 l -0.06,3.35 v 0 a 1.48,1.48 0 0 0 -0.54,1.13 v 0 l -1.7,1.65 v 0 a 1.36,1.36 0 0 0 -1.15,0.54 h -4.41 a 1.24,1.24 0 0 0 -1.15,-0.5 v 0 a 1.37,1.37 0 0 0 -1.06,-0.64 v 0 a 0.79,0.79 0 0 0 -0.59,-0.6 v 0 a 1.06,1.06 0 0 0 -0.11,-0.52 0.4,0.4 0 0 0 0.08,-0.43 1.65,1.65 0 0 0 0.61,-1.22 l -0.05,0.07 a 2.09,2.09 0 0 0 0.5,-0.08 v 0 l 0.54,0.36 a 0.39,0.39 0 0 0 0.39,0.26 0.77,0.77 0 0 0 0.77,0.46 0.23,0.23 0 0 0 0.32,0.11 0.74,0.74 0 0 0 0.79,0.36 3.7,3.7 0 0 0 2.28,0.05 1,1 0 0 0 1.14,-0.46 v 0 a 0.66,0.66 0 0 0 0.66,-0.54 l -0.05,0.05 A 0.6,0.6 0 0 0 215,147 a 0.25,0.25 0 0 0 0.1,-0.37 0.87,0.87 0 0 0 0,-1.35 v 0 a 1.15,1.15 0 0 0 -1.12,-1.17 v 0 a 1.1,1.1 0 0 0 -1.15,-0.53 v 0 a 2.11,2.11 0 0 0 -1.66,-0.65 v 0 a 1.32,1.32 0 0 0 -1.12,-0.65 l 0.06,0.07 a 0.73,0.73 0 0 0 -0.64,-0.58 l 0.05,0.06 a 1.54,1.54 0 0 0 -0.69,-1 v 0 a 3.86,3.86 0 0 0 -0.51,-1.9 z"
         id="path30" />
      <path
         class="cls-5"
         d="m 344.81,145.3 a 1,1 0 0 0 -0.09,1.13 1,1 0 0 0 0.5,1.09 v 0 a 0.54,0.54 0 0 0 0.54,0.55 v 0 a 0.92,0.92 0 0 0 1.09,0.49 H 348 a 1.17,1.17 0 0 0 1.29,-0.43 0.36,0.36 0 0 0 0.4,-0.19 c 0.31,0 0.46,-0.17 0.55,-0.44 v 0 l 1.09,0.6 v 0 l -0.12,1.58 v 0 a 1.31,1.31 0 0 0 -1,0.69 v 0 a 1.39,1.39 0 0 0 -1.13,0.53 h -3.34 a 1.44,1.44 0 0 0 -1.12,-0.55 v 0 a 0.64,0.64 0 0 0 -0.59,-0.5 h -0.05 a 0.63,0.63 0 0 0 -0.49,-0.55 v 0 a 0.89,0.89 0 0 0 -0.49,-0.75 0.28,0.28 0 0 0 -0.12,-0.37 1.53,1.53 0 0 0 -0.43,-1.3 v -3.08 a 2.51,2.51 0 0 0 0.45,-1.78 0.44,0.44 0 0 0 0.12,-0.46 1.54,1.54 0 0 0 0.58,-1.22 v 0.05 a 0.7,0.7 0 0 0 0.47,-0.64 v -0.06 l 0.46,-0.51 0.09,-0.1 a 0.57,0.57 0 0 0 0.51,-0.46 h 0.06 a 0.64,0.64 0 0 0 0.63,-0.46 v 0 a 1.69,1.69 0 0 0 1.29,-0.54 h 2.44 a 0.76,0.76 0 0 0 0.74,0.37 l 0.52,0.2 v 0 a 0.74,0.74 0 0 0 0.63,0.53 v 0 a 0.78,0.78 0 0 0 0.55,0.6 v 0 a 1.49,1.49 0 0 0 0.61,1.1 v 0 a 2.91,2.91 0 0 0 0.5,1.86 c 0,0.79 0,1.57 0,2.35 -1,0.7 -2.1,0.4 -3.16,0.5 -1.75,-0.01 -3.49,-0.6 -5.13,0.17 z m 0.06,-2.56 a 1.28,1.28 0 0 0 1.13,0.42 c 1.21,0 2.42,0.05 3.62,0 1.2,-0.05 1.58,-0.65 1.12,-1.81 a 2.76,2.76 0 0 0 -4.19,-1.18 3.67,3.67 0 0 0 -1.68,2.57 z"
         id="path32" />
      <path
         class="cls-5"
         d="m 271.49,150.83 h -0.21 l -0.16,0.12 -3.34,-0.1 v 0 a 1.39,1.39 0 0 0 -1.13,-0.61 v 0 a 0.73,0.73 0 0 0 -0.62,-0.57 v 0 a 0.75,0.75 0 0 0 -0.56,-0.64 l 0.06,0.06 A 1.7,1.7 0 0 0 265,148 a 0.4,0.4 0 0 0 -0.1,-0.44 c 0,-1.67 0,-3.35 0,-5 a 0.42,0.42 0 0 0 0.09,-0.45 1.47,1.47 0 0 0 0.51,-1.24 v 0 a 1.43,1.43 0 0 0 0.65,-1.1 h -0.05 a 0.74,0.74 0 0 0 0.55,-0.62 v 0 a 0.75,0.75 0 0 0 0.59,-0.57 v 0 a 0.93,0.93 0 0 0 0.74,-0.54 0.32,0.32 0 0 0 0.38,-0.14 1.5,1.5 0 0 0 1.19,-0.45 h 2.05 a 1.69,1.69 0 0 0 1.23,0.52 v 0 l 0.53,0.41 0.71,0.73 a 0.58,0.58 0 0 0 0.42,0.58 v 0 a 1.63,1.63 0 0 0 0.51,1.31 0.31,0.31 0 0 0 0.08,0.39 v 1.11 c 0,2.42 0,2.37 -2.41,2.48 -1.83,0.08 -3.68,-0.37 -5.47,0.3 v 0 c -0.85,0.6 -0.47,1.18 0,1.77 v 0 a 0.87,0.87 0 0 0 0.61,0.94 0.3,0.3 0 0 0 0.34,0.24 0.7,0.7 0 0 0 0.76,0.39 2.67,2.67 0 0 0 1.72,0 1,1 0 0 0 1.09,-0.47 v 0 a 0.62,0.62 0 0 0 0.64,-0.51 l -0.05,0.06 h 1.05 l -0.06,-0.08 a 1.82,1.82 0 0 0 0.59,1.31 v 0.1 l -0.54,0.78 v 0 a 0.71,0.71 0 0 0 -0.64,0.55 l 0.06,-0.06 a 1.64,1.64 0 0 0 -1.28,0.53 z m 1.81,-7.92 c -0.8,-2.61 -1.38,-3.22 -2.85,-3.25 a 3.45,3.45 0 0 0 -3.17,2.3 c -0.2,0.61 -0.14,1.16 0.65,1.17 a 21.32,21.32 0 0 0 5.37,-0.22 z"
         id="path34" />
      <path
         class="cls-5"
         d="m 390.11,147.93 a 0.31,0.31 0 0 0 0.34,0.24 0.7,0.7 0 0 0 0.77,0.39 2.7,2.7 0 0 0 1.71,0 1,1 0 0 0 1.09,-0.47 v 0 a 0.64,0.64 0 0 0 0.65,-0.51 l -0.05,0.06 h 1 l -0.05,-0.07 a 1.77,1.77 0 0 0 0.58,1.29 V 149 l -0.54,0.76 v 0 a 0.72,0.72 0 0 0 -0.65,0.53 l 0.06,-0.05 a 1.65,1.65 0 0 0 -1.27,0.61 h -0.2 l -0.17,0.12 -3.34,-0.1 v 0 a 1.36,1.36 0 0 0 -1.14,-0.61 h 0.05 a 0.73,0.73 0 0 0 -0.62,-0.57 v 0 a 0.77,0.77 0 0 0 -0.56,-0.64 l 0.05,0.06 a 1.64,1.64 0 0 0 -0.62,-1.21 0.41,0.41 0 0 0 -0.11,-0.44 c 0,-1.67 0,-3.35 0,-5 a 0.38,0.38 0 0 0 0.08,-0.44 1.4,1.4 0 0 0 0.52,-1.25 1.45,1.45 0 0 0 0.64,-1.09 h -0.05 a 0.76,0.76 0 0 0 0.56,-0.62 v 0 a 0.74,0.74 0 0 0 0.59,-0.57 v 0 a 1,1 0 0 0 0.74,-0.55 0.32,0.32 0 0 0 0.38,-0.14 1.46,1.46 0 0 0 1.18,-0.45 h 2.05 a 1.64,1.64 0 0 0 1.24,0.5 v 0 a 0.59,0.59 0 0 0 0.56,0.43 0.45,0.45 0 0 0 0.44,0.29 l -0.05,-0.05 a 0.47,0.47 0 0 0 0.27,0.45 0.57,0.57 0 0 0 0.44,0.59 v 0 a 1.65,1.65 0 0 0 0.54,1.27 0.32,0.32 0 0 0 0.08,0.41 v 1.11 c 0,2.42 0,2.37 -2.42,2.48 -1.82,0.09 -3.68,-0.37 -5.46,0.3 v 0 c -0.84,0.6 -0.45,1.18 0,1.77 v 0 a 0.88,0.88 0 0 0 0.69,1.03 z m -0.49,-5 a 18.75,18.75 0 0 0 4.67,0.16 c 1.33,0 1.59,-0.55 1,-1.76 a 2.65,2.65 0 0 0 -2.89,-1.7 c -1.51,0.2 -2.31,1.12 -2.78,3.37 z"
         id="path36" />
      <path
         class="cls-4"
         d="m 282.32,145.86 a 0.42,0.42 0 0 0 0.05,-0.49 4.62,4.62 0 0 0 0.49,-2.87 c 0,-0.32 0.07,-0.65 0.1,-1 a 3.4,3.4 0 0 0 0.44,-2.39 c 0,-0.35 0.07,-0.7 0.1,-1 a 4.64,4.64 0 0 0 0.49,-2.9 l 0.1,-0.92 0.51,-0.77 c 2.37,0 4.74,0 7.11,0 a 3.62,3.62 0 0 1 2.37,0.38 2.21,2.21 0 0 1 -2.5,1.9 c -1.77,0 -3.66,-0.62 -5.36,0.46 v 0 a 2.88,2.88 0 0 0 -0.45,2.28 c 0,0.33 -0.07,0.67 -0.11,1 -0.28,0.62 -0.79,1.23 0,1.83 v 0 c 1.31,0.66 2.72,0.18 4.07,0.32 0.79,0.08 1.71,-0.23 2.17,0.77 0,0.28 -0.05,0.56 -0.08,0.84 -0.89,0.66 -1.93,0.42 -2.92,0.51 -1.25,0.11 -2.56,-0.36 -3.75,0.34 v 0 c -0.76,0.37 -0.51,1 -0.49,1.65 0,0.34 -0.07,0.67 -0.11,1 a 4.77,4.77 0 0 0 -0.48,2.92 0.48,0.48 0 0 0 -0.07,0.49 2.37,2.37 0 0 1 -2.18,0.54 l 0.07,0.06 c -0.05,-0.36 -0.11,-0.71 -0.16,-1.07 -0.05,-0.36 0.07,-0.65 0.11,-1 a 4.79,4.79 0 0 0 0.48,-2.88 z"
         id="path38" />
      <path
         class="cls-5"
         d="m 368.81,144.73 -0.09,0.94 a 0.59,0.59 0 0 0 0,0.93 0.24,0.24 0 0 0 0,0.37 l 0.13,0.57 c 0,0.34 0.13,0.5 0.45,0.54 v 0 a 0.86,0.86 0 0 0 1.08,0.49 H 371 a 1,1 0 0 0 1.17,-0.43 v 0 a 0.7,0.7 0 0 0 0.68,-0.53 h -0.05 a 0.7,0.7 0 0 0 0.56,-0.66 v 0 a 0.57,0.57 0 0 0 0.41,-0.64 0.45,0.45 0 0 0 0.13,-0.48 1.86,1.86 0 0 0 0.45,-1.76 c 0,-0.35 0.07,-0.7 0.11,-1 a 4.7,4.7 0 0 0 0.48,-2.9 c 0,-0.32 0.07,-0.64 0.11,-1 l 0.64,-1.78 h 0.06 1.25 c 0.42,0.68 0.17,1.46 0.3,2.18 0,0.33 -0.08,0.67 -0.11,1 a 4.74,4.74 0 0 0 -0.48,2.93 c 0,0.34 -0.09,0.67 -0.13,1 v 0.06 a 3,3 0 0 0 -0.44,2.32 c 0,0.33 -0.07,0.66 -0.11,1 -0.59,0.88 -0.43,1.93 -0.64,2.89 l 0.08,-0.09 c -0.69,0 -1.43,0.33 -1.87,-0.61 -0.15,-0.32 -0.64,-0.14 -0.87,0.21 a 0.64,0.64 0 0 0 -0.67,0.44 v 0 a 0.46,0.46 0 0 0 -0.48,0.14 h -2.79 v 0 a 1.52,1.52 0 0 0 -1.09,-0.63 h 0.05 a 0.76,0.76 0 0 0 -0.59,-0.62 l 0.06,0.06 a 1.46,1.46 0 0 0 -0.6,-1.17 v 0 a 0.46,0.46 0 0 0 -0.14,-0.48 c 0,-1.12 0,-2.24 0,-3.36 0,-0.3 0.07,-0.6 0.11,-0.9 a 3.47,3.47 0 0 0 0.43,-2.46 c 0,-0.33 0.08,-0.65 0.11,-1 0.71,-0.84 0.13,-2.22 1.21,-2.91 h 0.77 c 0.76,1.05 0,2.23 0.26,3.33 l -0.05,0.56 a 0.28,0.28 0 0 0 0,0.4 4.82,4.82 0 0 0 -0.51,3.05 z"
         id="path40" />
      <path
         class="cls-5"
         d="m 306.45,148.11 0.94,-0.5 a 0.78,0.78 0 0 0 0.77,0.48 v 0 a 1,1 0 0 0 1.09,0.46 3.43,3.43 0 0 0 2.28,0 0.53,0.53 0 0 0 0.65,-0.38 v 0 a 0.63,0.63 0 0 0 0.56,-0.65 v 0 c 0.48,-0.4 0.48,-0.8 0,-1.19 v 0 a 0.49,0.49 0 0 0 -0.57,-0.5 l -0.15,-0.13 h -0.2 a 2.32,2.32 0 0 0 -1.87,-0.56 v 0 a 1.3,1.3 0 0 0 -1.16,-0.55 v 0 a 0.73,0.73 0 0 0 -0.6,-0.52 v 0 a 0.76,0.76 0 0 0 -0.52,-0.62 v 0 c 0,-1.11 -0.08,-2.22 -0.11,-3.33 a 0.31,0.31 0 0 0 0.1,-0.39 0.92,0.92 0 0 0 0.49,-0.75 v 0 a 0.71,0.71 0 0 0 0.53,-0.55 v 0 a 0.71,0.71 0 0 0 0.63,-0.49 v 0 a 1.78,1.78 0 0 0 1.34,-0.54 h 2.89 a 1.71,1.71 0 0 0 1.34,0.52 v 0 l 0.62,0.49 v 0 1.12 a 0.25,0.25 0 0 0 -0.1,0.35 2,2 0 0 1 -1.62,0.22 v 0 a 2.64,2.64 0 0 0 -3.37,0 v 0 a 0.56,0.56 0 0 0 -0.57,0.57 v 0 c -0.58,0.44 -0.55,0.91 -0.05,1.4 a 0.39,0.39 0 0 0 0.41,0.38 0.72,0.72 0 0 0 0.78,0.4 l 0.89,0.17 a 1.6,1.6 0 0 0 1.36,0.5 v 0 a 1.58,1.58 0 0 0 1.08,0.67 l -0.07,-0.07 a 1.82,1.82 0 0 0 0.69,1.06 v 0 c 0,0.93 0,1.87 0,2.8 a 0.35,0.35 0 0 0 -0.1,0.41 l -1.62,1.85 a 1.43,1.43 0 0 0 -1.13,0.54 v 0 h -3.89 v 0 a 1.25,1.25 0 0 0 -1.15,-0.52 v 0 l -1.05,-0.82 v -0.09 a 1.87,1.87 0 0 0 0.46,-1.24 z"
         id="path42" />
      <path
         class="cls-6"
         d="m 359.39,137.5 h 2.47 a 1.79,1.79 0 0 0 1.29,0.56 v 0 a 0.75,0.75 0 0 0 0.63,0.53 v 0 a 0.77,0.77 0 0 0 0.55,0.59 v 0 a 1,1 0 0 0 0.52,0.79 0.2,0.2 0 0 0 0,0.32 0.74,0.74 0 0 0 -0.11,0.48 l 0.06,-0.05 a 1.49,1.49 0 0 0 -1,0.72 l -1.05,-0.19 0.07,0.06 a 0.46,0.46 0 0 0 -0.28,-0.45 0.9,0.9 0 0 0 -0.94,-0.67 v 0 a 1.57,1.57 0 0 0 -2.34,0 v 0 a 1,1 0 0 0 -1,0.67 1.1,1.1 0 0 0 -0.71,1 v 0 a 1.1,1.1 0 0 0 -0.51,1.18 0.21,0.21 0 0 0 -0.07,0.34 3,3 0 0 0 0,3.25 0.22,0.22 0 0 0 0.09,0.34 0.62,0.62 0 0 0 0.45,0.69 h -0.05 a 0.71,0.71 0 0 0 0.64,0.59 v 0 a 0.51,0.51 0 0 0 0.64,0.39 2.49,2.49 0 0 0 1.68,0 0.51,0.51 0 0 0 0.63,-0.39 v 0 l 0.5,-0.26 a 0.37,0.37 0 0 0 0.41,-0.4 0.47,0.47 0 0 0 0.3,-0.42 H 363 a 0.73,0.73 0 0 0 0.59,0.54 v -0.06 c 0,0.51 0,1 0,1.51 h 0.06 a 0.74,0.74 0 0 0 -0.58,0.64 v -0.05 a 1.52,1.52 0 0 0 -1,0.7 0.92,0.92 0 0 0 -0.82,0.45 h -0.18 l -0.14,0.12 -3.33,-0.08 v 0 a 1.35,1.35 0 0 0 -1.13,-0.61 l 0.05,0.05 a 0.75,0.75 0 0 0 -0.62,-0.58 v 0 a 0.74,0.74 0 0 0 -0.58,-0.64 l 0.07,0.07 a 1.77,1.77 0 0 0 -0.63,-1.25 0.31,0.31 0 0 0 -0.11,-0.39 v -5 a 0.24,0.24 0 0 0 0.08,-0.35 1.62,1.62 0 0 0 0.54,-1.32 v 0 a 0.55,0.55 0 0 0 0.41,-0.6 0.31,0.31 0 0 0 0.19,-0.36 1,1 0 0 0 0.58,-0.74 v 0.05 a 0.79,0.79 0 0 0 0.62,-0.6 l -0.06,0.06 a 1.54,1.54 0 0 0 1.06,-0.67 v 0 a 1.62,1.62 0 0 0 1.32,-0.56 z"
         id="path44" />
      <path
         class="cls-7"
         d="m 320.54,143 a 0.42,0.42 0 0 0 -0.06,0.48 4.63,4.63 0 0 0 -0.48,2.88 2.14,2.14 0 0 0 0.06,1.7 c 0,0.34 0.12,0.49 0.46,0.45 a 1.21,1.21 0 0 0 1.11,0 l 1.12,0.12 v 0 a 2.27,2.27 0 0 1 -0.61,2.18 v 0 l -2.76,0.07 v 0 a 1.55,1.55 0 0 0 -1,-0.7 l 0.07,0.08 a 1.93,1.93 0 0 0 -0.64,-1.25 l -0.14,-0.93 c 0,-0.37 0,-0.74 0,-1.1 0,-0.36 0.07,-0.67 0.1,-1 a 4.77,4.77 0 0 0 0.48,-2.92 0.48,0.48 0 0 0 0.06,-0.51 c 0.8,-2.49 0.8,-2.49 -1.1,-3 v -1 c 0.25,-0.37 0.49,-0.75 0.74,-1.13 l 0.92,-0.09 c 0.64,-0.14 0.54,-0.62 0.48,-1.08 l 0.12,-1 0.71,-0.65 H 321 l 0.72,1.07 c 0,0.19 -0.05,0.38 -0.07,0.57 a 0.21,0.21 0 0 0 -0.05,0.34 c -0.23,0.26 -0.48,0.51 0.08,0.67 a 1.1,1.1 0 0 0 1.12,0.14 h 0.9 a 3.37,3.37 0 0 1 0.16,2.17 h 0.05 c -0.91,0.37 -2.06,-0.41 -2.83,0.59 v 0 a 4.24,4.24 0 0 0 -0.54,2.85 z"
         id="path46" />
      <path
         class="cls-8"
         d="m 259.29,148.11 c 0,-0.31 0.07,-0.62 0.11,-0.94 a 3.42,3.42 0 0 0 0.43,-2.42 c 0,-0.34 0.07,-0.68 0.11,-1 a 4.71,4.71 0 0 0 0.48,-2.93 c 0,-0.3 0.07,-0.6 0.11,-0.91 a 3.55,3.55 0 0 0 0.43,-2.45 c 0,-0.33 0.07,-0.66 0.11,-1 a 4.82,4.82 0 0 0 0.48,-2.94 0.43,0.43 0 0 0 0.06,-0.46 l 0.57,-0.66 h 1.49 c 0.06,0.35 0.13,0.71 0.19,1.06 0.06,0.35 -0.07,0.6 -0.1,0.9 a 3.54,3.54 0 0 0 -0.44,2.46 c 0,0.33 -0.07,0.66 -0.1,1 a 4.86,4.86 0 0 0 -0.49,3 0.41,0.41 0 0 0 -0.06,0.47 4.74,4.74 0 0 0 -0.47,2.89 c 0,0.32 -0.08,0.65 -0.11,1 a 3.4,3.4 0 0 0 -0.43,2.39 c 0,0.35 -0.08,0.69 -0.11,1 a 5.85,5.85 0 0 0 -0.62,2.32 l 0.06,-0.07 c -1.25,0.19 -2,-0.13 -1.69,-1.6 a 5.07,5.07 0 0 0 -0.01,-1.11 z"
         id="path48" />
      <path
         class="cls-9"
         d="m 385.25,137.51 h 1.32 c 0.07,0.35 0.14,0.71 0.22,1.06 0.08,0.35 -0.07,0.58 -0.1,0.87 l -1.23,0.76 -0.21,-0.06 -0.19,0.12 a 1,1 0 0 0 -1.15,0.54 v 0 a 0.61,0.61 0 0 0 -0.55,0.57 v 0 a 1.07,1.07 0 0 0 -0.58,1.12 v 0 a 1.71,1.71 0 0 0 -0.49,1.71 c 0,0.3 -0.08,0.61 -0.11,0.92 a 3.53,3.53 0 0 0 -0.43,2.44 l -0.12,1 a 6.25,6.25 0 0 0 -0.61,2.36 l 0.07,-0.08 c -1.25,0.2 -2,-0.09 -1.71,-1.59 a 5.77,5.77 0 0 0 0,-1.1 c 0,-0.33 0.07,-0.66 0.11,-1 a 4.74,4.74 0 0 0 0.47,-2.94 0.46,0.46 0 0 0 0.06,-0.5 4.57,4.57 0 0 0 0.48,-2.86 c 0,-0.33 0.07,-0.66 0.11,-1 l 0.8,-2.34 h 1.19 c 0.33,0.5 0.25,2 1.36,0.54 v 0 a 1.81,1.81 0 0 0 1.29,-0.54 z"
         id="path50" />
      <path
         class="cls-10"
         d="m 221.9,137.49 h 0.86 l 0.66,0.52 v 1 a 4.61,4.61 0 0 0 -0.48,2.87 c 0,0.33 -0.07,0.65 -0.11,1 a 3.44,3.44 0 0 0 -0.43,2.39 c 0,0.35 -0.07,0.7 -0.11,1.05 a 4.71,4.71 0 0 0 -0.47,2.88 l -0.12,0.94 c -0.54,0.81 -1.35,0.73 -2.16,0.67 l 0.06,0.05 c 0,-0.36 -0.11,-0.72 -0.16,-1.07 -0.05,-0.35 0.07,-0.7 0.11,-1 a 4.74,4.74 0 0 0 0.48,-2.89 c 0,-0.32 0.07,-0.64 0.11,-1 a 3.39,3.39 0 0 0 0.42,-2.39 c 0,-0.35 0.08,-0.7 0.11,-1 a 4.78,4.78 0 0 0 0.48,-2.9 0.52,0.52 0 0 0 0.08,-0.47 z"
         id="path52" />
      <path
         class="cls-11"
         d="m 276.08,148.68 a 0.62,0.62 0 0 0 0.13,-0.47 l 0.57,-0.65 v 0 h 1.65 v -0.05 l 0.55,0.78 c 0,0.46 0,0.91 0,1.37 -0.21,0.38 -0.42,0.77 -0.64,1.15 l 0.07,-0.06 -1.63,0.1 v 0 c -0.18,-0.19 -0.36,-0.39 -0.55,-0.58 v 0 c -0.06,-0.49 -0.1,-1.04 -0.15,-1.59 z"
         id="path54" />
      <path
         class="cls-12"
         d="m 326.68,147.49 a 0.22,0.22 0 0 0 0.3,0.1 4.11,4.11 0 0 1 0.3,2.76 v 0 l -0.55,0.52 v 0 c -1.83,-0.43 -1.85,-0.45 -1.69,-2.82 v 0 l 0.56,-0.54 v 0 z"
         id="path56" />
      <path
         class="cls-13"
         d="m 224.49,133.12 c 0,0.29 0,0.57 0,0.86 l -0.62,1.18 0.06,-0.06 -1.64,0.11 v 0 l -0.53,-0.58 v 0 -1.67 0 l 0.45,-0.57 0.1,-0.07 0.81,-0.41 h 0.08 l 0.81,0.47 v 0 z"
         id="path58" />
      <path
         class="cls-14"
         d="m 162.8,3.33 -0.61,-0.59 a 3,3 0 0 1 0.07,-0.51 v 0 L 162.92,1.68 164,1 164.55,1.11 V 1.7 1.75 c -0.13,0.16 -0.27,0.31 -0.4,0.46 a 0.69,0.69 0 0 0 -0.22,0.42 l -0.55,0.72 v 0 z"
         id="path60" />
      <path
         class="cls-15"
         d="m 82,68.45 0.49,0.56 a 1.3,1.3 0 0 1 -0.05,0.44 3.68,3.68 0 0 1 -0.75,-0.13 c -0.3,-0.13 -0.73,-0.33 -0.62,-0.66 0.11,-0.33 0.6,-0.27 0.93,-0.21 z"
         id="path62" />
      <path
         class="cls-16"
         d="m 191.5,112.81 c -0.18,-0.39 -0.11,-0.92 -0.61,-1.15 0.12,-0.43 0.33,-1 0.81,-0.87 0.48,0.13 0.31,0.71 0.24,1.09 a 4.13,4.13 0 0 1 -0.44,0.93 z"
         id="path64" />
      <path
         class="cls-17"
         d="m 344.87,142.74 a 3.67,3.67 0 0 1 1.68,-2.58 2.76,2.76 0 0 1 4.19,1.18 c 0.46,1.16 0.13,1.75 -1.12,1.81 -1.25,0.06 -2.41,0 -3.62,0 a 1.28,1.28 0 0 1 -1.13,-0.41 z"
         id="path66" />
      <path
         class="cls-17"
         d="m 273.3,142.91 a 21.32,21.32 0 0 1 -5.37,0.22 c -0.79,0 -0.85,-0.56 -0.65,-1.17 a 3.45,3.45 0 0 1 3.17,-2.3 c 1.47,0.03 2.05,0.64 2.85,3.25 z"
         id="path68" />
      <path
         class="cls-17"
         d="m 389.62,143 c 0.47,-2.23 1.27,-3.15 2.81,-3.3 a 2.65,2.65 0 0 1 2.89,1.7 c 0.56,1.21 0.3,1.75 -1,1.76 a 18.75,18.75 0 0 1 -4.7,-0.16 z"
         id="path70" />
      <path
         class="cls-18"
         d="M 164.47,1.11 V 0.52 a 0.68,0.68 0 0 1 0.57,0.57 z"
         id="path72" />
    </g>
  </g>
</svg>
